<?xml version="1.0" encoding="UTF-8"?>
<svg width="750px" height="403px" viewBox="0 0 750 403" version="1.1" xmlns="http://www.w3.org/2000/svg" xmlns:xlink="http://www.w3.org/1999/xlink">
    <!-- Generator: Sketch 64 (93537) - https://sketch.com -->
    <title>Animal-Planet</title>
    <desc>Created with Sketch.</desc>
    <defs>
        <polygon id="path-1" points="0.000346153846 0.000346153846 749.239615 0.000346153846 749.239615 403.045731 0.000346153846 403.045731"></polygon>
    </defs>
    <g id="Symbols" stroke="none" stroke-width="1" fill="none" fill-rule="evenodd">
        <g id="Network-Logo/Centered/Color/Animal-Planet" transform="translate(-125.000000, -48.000000)">
            <g id="Animal-Planet" transform="translate(125.000000, 48.000000)">
                <mask id="mask-2" fill="white">
                    <use xlink:href="#path-1"></use>
                </mask>
                <g id="Clip-2"></g>
                <path d="M587.342654,12.3603462 L571.914577,39.1630385 C653.249192,55.0261154 700.485346,89.6738077 700.485346,130.200346 C700.485346,157.217654 680.230731,183.153808 645.476885,183.153808 C592.414962,183.153808 553.394192,99.7122692 553.394192,99.7122692 C542.294192,99.3580385 522.412269,98.8988077 522.412269,98.8988077 C522.412269,98.8988077 465.5265,25.7957308 378.951115,0.000346153846 L378.951115,118.568423 C386.5815,124.976885 396.407654,134.130346 405.648808,145.496885 C366.574962,121.878808 325.978038,104.3865 254.344962,104.3865 C176.426885,104.3865 81.1584231,135.829962 28.2384231,221.857269 L33.7988077,231.930346 C57.9465,204.666115 95.2330385,188.164962 96.4376538,187.704577 C44.4568846,233.152269 14.6415,308.5215 0.000346153846,357.563423 L45.4653462,403.045731 C96.5253462,345.613038 181.739192,291.063808 296.925346,291.063808 C383.394577,291.063808 471.191885,327.164192 532.113808,389.609192 L581.350731,340.319192 C540.010731,269.677269 490.064192,219.786115 488.560731,218.280346 C490.702269,219.254192 534.982269,244.800346 612.669577,244.800346 C684.831115,244.800346 749.239962,204.708808 749.239962,144.806885 C749.239962,73.2638077 687.898038,27.9141923 587.342654,12.3603462" id="Fill-1" fill="#0073FF" mask="url(#mask-2)"></path>
            </g>
        </g>
    </g>
</svg>