<?xml version="1.0" encoding="UTF-8"?>
<svg width="850px" height="436px" viewBox="0 0 850 436" version="1.1" xmlns="http://www.w3.org/2000/svg" xmlns:xlink="http://www.w3.org/1999/xlink">
    <!-- Generator: Sketch 64 (93537) - https://sketch.com -->
    <title>HGTV</title>
    <desc>Created with Sketch.</desc>
    <g id="Symbols" stroke="none" stroke-width="1" fill="none" fill-rule="evenodd">
        <g id="Network-Logo/Centered/Color/HGTV" transform="translate(-75.000000, -31.000000)">
            <g id="HGTV" transform="translate(75.000000, 31.000000)">
                <rect id="Rectangle" fill="#D8D8D8" opacity="0" x="0" y="0" width="849.967309" height="438.060075"></rect>
                <polyline id="Fill-1" fill="#4EABC1" points="588.438906 195.920522 294.220116 0 0 195.920522 588.438906 195.920522"></polyline>
                <polyline id="Fill-2" fill="#4EABC1" points="0 206.804996 74.1441614 206.804996 74.1441614 287.410628 143.781683 287.410628 143.781683 206.804996 217.940336 206.804996 217.940336 435.378938 143.781683 435.378938 143.781683 353.318752 74.1441614 353.318752 74.1441614 435.378938 0 435.378938 0 206.804996"></polyline>
                <path d="M228.837352,321.722725 L228.837352,321.091316 C228.837352,255.65652 282.111138,206.804996 353.487458,206.804996 C392.227391,206.804996 425.698887,219.331628 450.240623,239.984559 L407.934693,289.464888 C393.086667,277.266328 376.622129,272.450696 357.893934,272.450696 C328.510714,272.450696 309.339455,292.292559 309.339455,322.029967 L309.339455,322.654867 C309.339455,353.678527 332.976265,372.883773 361.117563,372.883773 C374.030874,372.883773 381.140042,369.945444 386.949555,366.827455 L386.949555,352.107165 L348.198881,352.107165 L348.198881,301.047662 L457.674705,301.047662 L457.674705,402.501409 C433.135654,421.920164 396.758731,435.378938 355.744401,435.378938 C285.340137,435.378938 228.837352,389.668836 228.837352,321.722725" id="Fill-3" fill="#4EABC1"></path>
                <polyline id="Fill-4" fill="#4EABC1" points="768.356405 206.804996 725.321996 335.231198 682.291533 206.804996 457.674705 206.804996 457.674705 270.883754 516.542082 270.883754 516.542082 435.378938 590.564793 435.378938 590.564793 270.883754 624.645214 270.883754 689.263934 435.378938 760.114262 435.378938 849.967309 206.804996 768.356405 206.804996"></polyline>
            </g>
        </g>
    </g>
</svg>