<?xml version="1.0" encoding="UTF-8"?>
<svg width="700px" height="433px" viewBox="0 0 700 433" version="1.1" xmlns="http://www.w3.org/2000/svg" xmlns:xlink="http://www.w3.org/1999/xlink">
    <!-- Generator: Sketch 64 (93537) - https://sketch.com -->
    <title>DIY</title>
    <desc>Created with Sketch.</desc>
    <g id="Symbols" stroke="none" stroke-width="1" fill="none" fill-rule="evenodd">
        <g id="Network-Logo/Centered/Color/DIY" transform="translate(-150.000000, -34.000000)" fill="#E6AC0F">
            <g id="DIY" transform="translate(150.000000, 34.000000)">
                <path d="M197.663883,373.184127 C208.920025,373.184127 221.659735,374.757478 230.276505,383.609738 C238.065237,391.519716 238.375752,399.965671 238.582761,406.181271 L183.233596,406.181271 C185.260564,416.010391 193.972214,418.111074 198.716182,418.111074 C201.657442,418.111074 204.288187,417.376268 206.073644,416.624171 C208.721641,415.586797 209.765314,414.532133 211.240256,413.04523 L237.116444,414.307369 C235.753631,416.848936 233.019381,422.104965 225.342779,426.332265 C215.656459,431.605583 202.3906,432.245298 197.560379,432.245298 C190.185665,432.245298 182.819577,431.285726 175.971013,428.54533 C165.249646,424.214292 157.564418,415.586797 157.564418,402.498593 C157.564418,395.107302 160.195164,389.32394 163.153675,385.623972 C172.624359,373.495339 189.349002,373.184127 197.663883,373.184127 Z M477.187948,402.609246 C477.187948,422.328 458.996989,432.131186 435.93268,432.131186 C416.370283,432.131186 394.694663,424.739895 394.694663,402.816721 C394.694663,381.818538 414.369191,373.605992 434.155849,373.29478 C466.889226,372.862541 477.187948,388.466378 477.187948,402.609246 Z M125.88679,373.707136 C133.373633,373.707136 138.410864,374.856893 143.042702,377.623224 C151.556806,382.593135 152.186693,389.958847 152.202547,400.773135 L152.202872,430.65898 L127.258227,430.65898 L127.258227,405.13093 C127.258227,401.448251 127.051218,399.442661 126.628574,397.955758 C124.843117,391.515393 119.262486,389.622186 114.622023,389.622186 C111.585883,389.622186 108.644623,390.365637 106.315766,392.258845 C101.804684,395.967458 101.683929,400.817182 101.683929,405.770644 L101.683929,430.65898 L76.6444048,430.65898 L76.6444048,374.7618 L101.683929,374.7618 L101.683929,381.815945 C107.790709,377.389815 114.432264,373.707136 125.88679,373.707136 Z M526.401007,373.707136 L526.401007,395.742693 C524.50342,395.543863 522.614458,395.336388 520.501236,395.336388 C513.868307,395.336388 511.246186,396.814647 509.667739,398.292905 C507.244003,400.497325 507.140498,403.133984 507.036993,405.649617 L507.036993,430.65898 L482.299358,430.65898 L482.299358,374.7618 L507.140498,374.7618 L507.140498,383.61406 C509.04671,380.666188 511.668831,378.245649 514.825726,376.551271 C519.466189,374.018349 523.235487,373.802229 526.401007,373.707136 Z M555.012307,356.200583 L555.012307,392.69022 L574.169312,374.864673 L605.419121,374.864673 L581.854539,395.335524 L606.255784,430.658115 L578.809774,430.658115 L565.121271,409.988434 L555.133063,418.624574 L555.133063,430.658115 L530.723193,430.658115 L530.507558,356.200583 L555.012307,356.200583 Z M311.098189,374.759207 L314.893363,398.808998 C315.721401,403.97858 315.937036,405.232074 316.471811,409.986705 C317.515484,404.082317 317.929503,402.491677 320.465369,396.068602 L329.41853,374.759207 L354.449428,374.759207 L362.238161,396.180984 C364.342757,402.284202 364.765402,403.857553 365.507186,410.297918 C366.343849,405.136981 366.559484,403.857553 367.611782,398.808998 L372.234995,374.759207 L398.344068,374.759207 L378.229645,430.656386 L353.71627,430.656386 L344.771734,405.76805 C342.986277,400.814589 342.555008,399.440068 341.399205,394.806463 C340.027767,399.855017 339.613748,401.022063 337.716161,405.871788 L327.512317,430.656386 L302.584923,430.656386 L283.954068,374.759207 L311.098189,374.759207 Z M271.317863,358.212224 L271.317863,377.083789 L280.365904,377.083789 L280.365904,391.52058 L271.421368,391.52058 L271.421368,409.882103 C271.628378,414.84421 274.060739,414.84421 280.478034,414.84421 L280.478034,430.655522 L264.590055,430.655522 C256.490808,430.456692 252.169485,429.920715 248.909085,426.756724 C246.476723,423.69647 246.597479,420.852336 246.476723,417.999556 L246.597479,414.204496 L246.907993,391.52058 L239.127886,391.52058 L239.127886,377.083789 L247.123628,377.083789 L247.330638,358.212224 L271.317863,358.212224 Z M434.880382,387.939046 C423.744996,388.241613 420.363841,396.177526 420.363841,402.375837 C420.363841,413.683215 429.109992,417.054682 436.467455,417.054682 C441.521937,417.054682 451.605024,414.530404 451.605024,402.375837 C451.605024,393.229654 445.29986,387.619189 434.880382,387.939046 Z M198.302163,387.413443 C187.770554,387.413443 185.139809,393.9489 184.08751,396.490467 L212.490939,396.490467 C211.654275,394.38114 211.119501,392.790499 208.497381,390.586079 C205.124851,387.837037 200.915658,387.413443 198.302163,387.413443 Z M308.409653,81.8419078 L308.409653,336.98409 L207.190633,336.98409 L207.190633,318.224907 C198.573863,323.627897 190.819632,328.322016 173.577466,333.379215 C157.223715,338.427769 139.558904,341.315127 121.048805,341.315127 C49.1043784,341.315127 0,300.537677 0,242.072996 C0,188.65687 42.6353316,139.580426 122.333989,139.580426 C168.410853,139.580426 191.250902,154.380298 207.190633,164.840488 L207.190633,164.840488 L207.190633,81.8419078 L308.409653,81.8419078 Z M501.397709,101.778511 L521.66739,148.42577 C535.036753,179.858208 537.615747,187.794121 544.093419,218.223764 C549.691301,193.421876 551.856275,186.471469 561.77548,161.003932 L561.77548,161.003932 L587.634417,101.778511 L699.307417,101.778511 L591.093201,283.733944 C579.880186,301.59407 569.089816,318.460045 544.093419,329.378408 C525.988713,336.985819 512.619349,337.651467 477.695122,337.988614 L477.695122,337.988614 L424.234918,337.988614 L424.234918,288.358904 L471.574665,288.358145 C481.799213,288.313431 491.918399,286.277745 491.918399,278.106189 C491.918399,274.466734 489.330781,270.498778 487.605702,267.187826 L487.605702,267.187826 L390.595875,101.778511 L501.397709,101.778511 Z M407.387795,146.956157 L407.387795,336.761055 L323.428192,336.761055 L323.428192,146.956157 L407.387795,146.956157 Z M154.636096,197.318945 C122.333989,197.318945 101.21902,213.20806 101.21902,240.266236 C101.21902,270.946578 127.069331,285.020288 153.773557,285.020288 C186.075664,285.020288 207.190633,265.526298 207.190633,240.266236 C207.190633,218.265259 191.250902,197.318945 154.636096,197.318945 Z M401.426784,0 L432.754222,86.2403744 L346.715899,117.620944 L315.379835,31.3892141 L401.426784,0 Z" id="Combined-Shape"></path>
            </g>
        </g>
    </g>
</svg>