<?xml version="1.0" encoding="UTF-8"?>
<svg width="850px" height="410px" viewBox="0 0 850 410" version="1.1" xmlns="http://www.w3.org/2000/svg" xmlns:xlink="http://www.w3.org/1999/xlink">
    <!-- Generator: Sketch 64 (93537) - https://sketch.com -->
    <title>Travel</title>
    <desc>Created with Sketch.</desc>
    <g id="Symbols" stroke="none" stroke-width="1" fill="none" fill-rule="evenodd">
        <g id="Network-Logo/Centered/Color/Travel" transform="translate(-75.000000, -45.000000)">
            <g id="Travel" transform="translate(75.000000, 45.000000)">
                <path d="M248.175182,366.183268 L239.813172,370.126521 C237.050687,365.176066 231.780777,362.61723 226.742381,362.61723 C220.40907,362.61723 214.079684,365.49106 214.079684,371.285386 L214.079684,391.8533 C214.079684,397.66707 220.40907,400.525345 226.742381,400.525345 C231.855332,400.525345 237.133091,398.048173 239.813172,393.101608 L248.175182,396.803754 C243.952976,405.320247 235.186795,409.489051 226.742381,409.489051 C215.786617,409.489051 204.744526,403.624726 204.744526,391.8533 L204.744526,371.285386 C204.744526,359.603402 215.786617,353.649635 226.985668,353.649635 C235.351602,353.649635 244.035379,357.752329 248.175182,366.183268 Z" id="Fill-1" fill="#E6AC0F"></path>
                <polygon id="Fill-3" fill="#E6AC0F" points="307.21219 386.14069 282.203869 386.14069 282.203869 409.489051 272.992701 409.489051 272.992701 353.649635 282.203869 353.649635 282.203869 377.069362 307.21219 377.069362 307.21219 353.649635 316.423358 353.649635 316.423358 409.489051 307.21219 409.489051"></polygon>
                <path d="M368.152801,369.398554 L366.589708,359.854015 L365.595637,359.854015 L363.892003,369.570064 L359.854015,384.671533 L372.262774,384.671533 L368.152801,369.398554 Z M361.264187,353.649635 L370.772888,353.649635 L390.875912,409.489051 L381.371008,409.489051 L375.954275,394.982063 L356.003086,394.982063 C354.200039,400.417723 352.787968,404.053391 350.97733,409.489051 L341.240876,409.489051 L361.264187,353.649635 Z" id="Fill-5" fill="#E6AC0F"></path>
                <polygon id="Fill-7" fill="#E6AC0F" points="424.897736 378.342044 424.897736 409.489051 415.693431 409.489051 415.693431 353.649635 425.377527 353.649635 444.906929 386.620423 450.706639 397.737558 451.270873 397.578968 449.915944 385.593555 449.915944 353.649635 459.124088 353.649635 459.124088 409.489051 448.407482 409.489051 429.269589 377.160551 424.026436 366.519185 423.46604 366.657951"></polygon>
                <polygon id="Fill-9" fill="#E6AC0F" points="499.351104 378.342044 499.351104 409.489051 490.145985 409.489051 490.145985 353.649635 499.830937 353.649635 519.362065 386.620423 525.162288 397.737558 525.722734 397.578968 524.371523 385.593555 524.371523 353.649635 533.576642 353.649635 533.576642 409.489051 522.859089 409.489051 503.723344 377.160551 498.475889 366.519185 497.919282 366.657951"></polygon>
                <polygon id="Fill-11" fill="#E6AC0F" points="595.620438 362.780659 567.636175 362.780659 567.636175 377.039468 593.392797 377.039468 593.392797 386.170492 567.636175 386.170492 567.636175 400.358028 595.620438 400.358028 595.620438 409.489051 558.394161 409.489051 558.394161 353.649635 595.620438 353.649635"></polygon>
                <polygon id="Fill-13" fill="#E6AC0F" points="663.868613 409.489051 626.642336 409.489051 626.642336 353.649635 636.413206 353.649635 636.413206 400.346358 663.868613 400.346358"></polygon>
                <polygon id="Fill-17" fill="#E6AC0F" points="601.824818 310.218978 663.868613 310.218978 663.868613 0 601.824818 0"></polygon>
                <path d="M518.756739,86.8613139 C510.837269,110.566381 464.847097,248.17663 463.545632,252.077754 C462.797576,254.315164 460.778589,255.256023 459.122179,255.256023 C457.46577,255.256023 455.446782,254.315164 454.698726,252.077754 C453.397262,248.17663 407.407089,110.566381 399.48762,86.8613139 L335.036496,86.8613139 C343.028481,110.742314 389.888841,250.804152 396.724393,271.246808 C404.636229,294.917454 427.803063,316.423358 459.122179,316.423358 C490.441296,316.423358 513.604313,294.917454 521.523782,271.246808 C528.355517,250.804152 575.219694,110.742314 583.211679,86.8613139 L518.756739,86.8613139 Z" id="Fill-19" fill="#E6AC0F"></path>
                <polygon id="Fill-20" fill="#E6AC0F" points="0 57.3493083 0 -5.29170874e-13 254.379562 -5.29170874e-13 254.379562 57.3493083 161.328505 57.3493083 161.328505 310.218978 93.066444 310.218978 93.066444 57.3493083"></polygon>
                <path d="M265.993307,310.218978 L265.993307,198.229286 C265.993307,170.724853 288.613596,147.911926 316.423358,147.911926 L316.423358,86.8613139 C254.838044,86.8613139 204.744526,137.033733 204.744526,198.229286 L204.744526,310.218978 L265.993307,310.218978 Z" id="Fill-21" fill="#E6AC0F"></path>
                <path d="M707.29927,300.75997 L707.29927,9.45793144 C707.29927,0.671594733 718.261598,-3.34875006 723.952466,3.35054342 L847.75482,149.001562 C850.748393,152.522247 850.748393,157.695654 847.75482,161.220182 L723.952466,306.871201 C718.261598,313.566651 707.29927,309.546306 707.29927,300.75997" id="Fill-22" fill="#8A267F"></path>
            </g>
        </g>
    </g>
</svg>