<?xml version="1.0" encoding="UTF-8"?>
<svg width="998px" height="240px" viewBox="0 0 998 240" version="1.1" xmlns="http://www.w3.org/2000/svg" xmlns:xlink="http://www.w3.org/1999/xlink">
    <!-- Generator: Sketch 64 (93537) - https://sketch.com -->
    <title>Cooking</title>
    <desc>Created with Sketch.</desc>
    <g id="Symbols" stroke="none" stroke-width="1" fill="none" fill-rule="evenodd">
        <g id="Network-Logo/Centered/Color/Cooking" transform="translate(-1.000000, -129.000000)">
            <g id="Cooking" transform="translate(1.000000, 129.000000)">
                <g id="CC-Logo">
                    <polygon id="logo-cc-2" fill="#D0E147" points="5.04967589 184.815197 620.400197 184.815197 620.400197 238.555193 5.04967589 238.555193"></polygon>
                    <path d="M657.535964,182.779137 C668.627219,182.805384 675.985699,189.50976 678.75482,202.044843 L678.75482,202.044843 L669.350883,202.044843 C667.309118,195.141735 664.078476,191.242099 657.44366,191.242099 C648.445861,191.309592 643.077457,198.561417 643.077457,210.894019 C643.077457,223.834063 648.486475,230.973399 657.502735,231.033393 C664.366464,230.988397 667.718948,226.815036 669.609335,219.132001 L669.609335,219.132001 L678.954197,219.132001 C676.480448,232.533253 669.14043,239.425112 657.535964,239.447609 L657.535964,239.447609 L657.473197,239.447609 C643.705125,239.417612 633.920895,229.758512 633.920895,210.965262 C633.920895,192.700713 643.989421,182.812884 657.473197,182.786636 L657.473197,182.786636 L657.487966,182.779137 C657.487966,182.779137 657.49535,182.786636 657.517503,182.786636 C657.517503,182.786636 657.532272,182.779137 657.535964,182.779137 L657.535964,182.779137 Z M696.44397,183.877784 L696.44397,205.648257 L720.852854,205.648257 L720.852854,183.877784 L729.931881,183.877784 L729.931881,238.4802 L720.852854,238.4802 L720.852854,214.20496 L696.44397,214.20496 L696.44397,238.4802 L687.357558,238.4802 L687.357558,183.877784 L696.44397,183.877784 Z M765.845542,183.656555 L784.882331,238.4802 L775.570698,238.4802 L771.213946,225.495159 L750.799981,225.495159 L746.365695,238.4802 L737.870029,238.4802 L756.903126,183.656555 L765.845542,183.656555 Z M803.025616,183.877784 L828.464613,222.836656 L828.608608,222.836656 L828.608608,183.877784 L837.034122,183.877784 L837.034122,238.4802 L828.756294,238.4802 L802.375795,198.707653 L802.231801,198.707653 L802.231801,238.4802 L793.802595,238.4802 L793.802595,183.877784 L803.025616,183.877784 Z M860.294744,183.877784 L885.730049,222.836656 L885.881428,222.836656 L885.881428,183.877784 L894.30325,183.877784 L894.30325,238.4802 L886.018038,238.4802 L859.648615,198.707653 L859.504621,198.707653 L859.504621,238.4802 L851.075415,238.4802 L851.075415,183.877784 L860.294744,183.877784 Z M943.069328,183.877784 L943.069328,192.438237 L917.416185,192.438237 L917.416185,206.015723 L936.238828,206.015723 L936.238828,214.20496 L917.416185,214.20496 L917.416185,230.073482 L944.52404,230.073482 L944.52404,238.4802 L908.337158,238.4802 L908.337158,183.877784 L943.069328,183.877784 Z M964.362027,183.877784 L964.362027,230.073482 L989.147512,230.073482 L989.147512,238.4802 L955.283001,238.4802 L955.283001,183.877784 L964.362027,183.877784 Z M761.193418,195.242976 L761.049424,195.242976 L753.561719,217.380914 L768.526052,217.380914 L761.193418,195.242976 Z M73.5282082,1.00731403 C107.300416,1.00731403 136.616184,18.6494211 144.428799,59.8955801 L144.428799,59.8955801 L101.710482,59.8955801 C97.4755723,44.7282426 88.296857,36.2352835 73.7312771,36.2352835 L73.7312771,36.2352835 L73.317755,36.2352835 C52.490268,36.2352835 42.6211184,53.539922 42.6211184,83.0084278 C42.6211184,111.858241 52.785641,130.554 73.317755,130.816476 L73.317755,130.816476 L73.7349693,130.816476 C89.0906719,130.625243 98.6496798,120.103723 102.489529,102.73909 L102.489529,102.73909 L145.086004,102.73909 C138.525032,146.415023 109.512021,165.009541 73.5282082,165.009541 C32.5230548,165.009541 0.563698819,140.888038 0.563698819,83.0084278 C0.563698819,25.1400667 33.9962275,1.00731403 73.5282082,1.00731403 Z M924.268838,0.943569967 C958.052122,0.943569967 987.36789,18.5931764 995.176813,59.8318361 L995.176813,59.8318361 L952.454804,59.8318361 C948.230971,44.6644985 939.044871,36.175289 924.482983,36.175289 L924.482983,36.175289 L924.065769,36.175289 C903.245667,36.175289 893.369133,53.4724283 893.369133,82.9446837 C893.369133,111.790747 903.533655,130.486506 924.065769,130.745232 L924.065769,130.745232 L924.490368,130.745232 C938.886108,130.568999 948.157128,121.288613 952.428959,105.843801 L952.428959,105.843801 L925.26203,105.843801 L925.26203,75.4378828 L997.008126,75.4378828 C997.144736,77.8826551 997.229655,80.3649239 997.229655,82.9446837 C997.229655,140.813045 965.270299,164.945797 924.268838,164.945797 C883.271069,164.945797 851.304329,140.813045 851.304329,82.9446837 C851.304329,25.072573 884.747934,0.943569967 924.268838,0.943569967 Z M229.821126,0.699842664 C267.244882,0.699842664 306.149195,24.825096 306.149195,82.6934571 C306.149195,140.573067 267.244882,164.70207 229.821126,164.70207 C192.175841,164.70207 153.271527,140.573067 153.271527,82.6934571 C153.271527,24.825096 192.175841,0.699842664 229.821126,0.699842664 Z M391.75936,0.699842664 C429.179424,0.699842664 468.076353,24.825096 468.076353,82.6934571 C468.076353,140.573067 429.179424,164.70207 391.75936,164.70207 C354.110382,164.70207 315.213454,140.573067 315.213454,82.6934571 C315.213454,24.825096 354.110382,0.699842664 391.75936,0.699842664 Z M524.858116,2.82589468 L524.858116,161.754845 L482.564398,161.754845 L482.564398,2.82589468 L524.858116,2.82589468 Z M615.076099,3.71081227 L571.737499,81.7485451 L622.534267,161.751095 L574.739227,161.751095 L525.109183,81.6623031 L567.288444,3.71081227 L615.076099,3.71081227 Z M677.617634,3.68831436 L677.617634,161.709849 L635.545446,161.709849 L635.545446,3.68831436 L677.617634,3.68831436 Z M740.450851,3.68831436 L797.435682,92.3038121 L797.860281,92.3038121 L797.860281,3.68831436 L836.339995,3.68831436 L836.339995,161.709849 L797.435682,161.709849 L737.936488,73.3043314 L737.519274,73.3043314 L737.519274,161.709849 L699.03956,161.709849 L699.03956,3.68831436 L740.450851,3.68831436 Z M229.821126,35.9353114 C207.738304,35.9353114 195.328947,53.6561612 195.328947,82.6934571 C195.328947,111.738252 207.738304,130.531502 229.821126,130.531502 C251.682419,130.531502 264.091776,111.738252 264.091776,82.6934571 C264.091776,53.6561612 251.682419,35.9353114 229.821126,35.9353114 Z M391.75936,35.9353114 C369.676538,35.9353114 357.267181,53.6561612 357.267181,82.6934571 C357.267181,111.738252 369.676538,130.531502 391.75936,130.531502 C413.616961,130.531502 426.03001,111.738252 426.03001,82.6934571 C426.03001,53.6561612 413.616961,35.9353114 391.75936,35.9353114 Z" id="logo-cc-1" fill="#FFFFFF"></path>
                </g>
            </g>
        </g>
    </g>
</svg>