<svg xmlns="http://www.w3.org/2000/svg" width="44" height="44" viewBox="0 0 44 44">
    <g fill="#FFF" fill-rule="evenodd" opacity=".7">
        <path d="M22 10c6.627 0 12 5.373 12 12s-5.373 12-12 12-12-5.373-12-12 5.373-12 12-12zm0 1c-6.075 0-11 4.925-11 11s4.925 11 11 11 11-4.925 11-11-4.925-11-11-11z" transform="translate(.4 .15)"/>
        <path fill-rule="nonzero" d="M22.035 19.1c.293 0 .544-.105.752-.313.208-.208.313-.456.313-.742 0-.293-.105-.54-.313-.742-.208-.202-.459-.303-.752-.303-.273 0-.514.106-.723.317-.208.212-.312.454-.312.728 0 .28.104.526.313.737.208.212.449.318.722.318zm.899 7.68v-6h-1.778v6h1.778z" transform="translate(.4 .15)"/>
    </g>
</svg>
