<?xml version="1.0" encoding="utf-8"?>
<!-- Generator: Adobe Illustrator 24.2.1, SVG Export Plug-In . SVG Version: 6.00 Build 0)  -->
<svg version="1.1" id="Layer_1" xmlns="http://www.w3.org/2000/svg" xmlns:xlink="http://www.w3.org/1999/xlink" x="0px" y="0px"
	 viewBox="0 0 15 9" style="enable-background:new 0 0 15 9;" xml:space="preserve">
<style type="text/css">
	.st0{display:none;opacity:0.5;fill-rule:evenodd;clip-rule:evenodd;enable-background:new    ;}
	.st1{fill-rule:evenodd;clip-rule:evenodd;}
</style>
<g transform="translate(-.15 .15)">
	<circle class="st0" cx="7.15" cy="3.85" r="12"/>
	<g>
		<path id="prefix__a" class="st1" d="M4.24,0.35c1.75,0,3.25,1.11,3.8,2.67h5.83l1.22,1.33l-1.14,1.22l-0.08,0.11H13l-0.54-0.56
			h-0.3l-0.54,0.56h-0.73l-0.54-0.56H9.49L8.95,5.68H8.04c-0.55,1.55-2.05,2.67-3.8,2.67c-2.22,0-4.03-1.79-4.03-4
			S2.01,0.35,4.24,0.35z M2.83,3.35c-0.55,0-0.99,0.45-0.99,1s0.44,1,0.99,1c0.55,0,0.99-0.45,0.99-1C3.83,3.8,3.38,3.35,2.83,3.35z
			"/>
	</g>
</g>
</svg>
