<?xml version="1.0" encoding="UTF-8"?>
<svg width="40px" height="40px" viewBox="0 0 40 40" version="1.1" xmlns="http://www.w3.org/2000/svg" xmlns:xlink="http://www.w3.org/1999/xlink">
    <title>Group</title>
    <g id="Page-1" stroke="none" stroke-width="1" fill="none" fill-rule="evenodd">
        <g id="Group" fill="#FFFFFF" fill-rule="nonzero">
            <rect id="Rectangle" opacity="0" x="0" y="0" width="40" height="40"></rect>
            <path d="M15.7833333,14.5499997 C18.3833333,14.5499997 20.5833333,16.1999997 21.4,18.483333 L30.0166667,18.483333 L31.8166667,20.4499997 L30.1333333,22.2499997 L30.0166667,22.4166663 L28.7333333,22.4166663 L27.9333333,21.5999997 L27.4833333,21.5999997 L26.6833333,22.4166663 L25.6,22.4166663 L24.8,21.5999997 L23.5166667,21.5999997 L22.75,22.4166663 L21.4,22.4166663 C20.5833333,24.7166663 18.3833333,26.3499997 15.7833333,26.3499997 C12.5,26.3499997 9.83333333,23.6999997 9.83333333,20.433333 C9.83333333,17.1666663 12.5,14.5499997 15.7833333,14.5499997 Z M13.7166667,18.983333 C12.9,18.983333 12.25,19.6499997 12.25,20.4666663 C12.25,21.283333 12.9,21.9499997 13.7166667,21.9499997 C14.5166667,21.9499997 15.1833333,21.283333 15.1833333,20.4666663 C15.1833333,19.633333 14.5166667,18.983333 13.7166667,18.983333 Z" id="prefix__a"></path>
        </g>
    </g>
</svg>
