<svg xmlns="http://www.w3.org/2000/svg" xmlns:xlink="http://www.w3.org/1999/xlink" width="44" height="44" viewBox="0 0 44 44">
    <defs>
        <path id="prefix__a" d="M19.64 17.896l-4.6-4.6c2.402-3.256 2.12-7.93-.805-10.854C12.66.867 10.565 0 8.34 0 6.11 0 4.017.867 2.443 2.442.867 4.018 0 6.112 0 8.34c0 2.227.867 4.32 2.443 5.896 1.574 1.575 3.668 2.443 5.896 2.443 1.803 0 3.53-.575 4.96-1.636l4.597 4.597c.233.233.543.361.872.361.33 0 .64-.129.87-.36.233-.233.362-.542.362-.872 0-.33-.128-.639-.36-.872zM8.374 2.013c1.7 0 3.299.662 4.501 1.864 1.2 1.2 1.861 2.798 1.861 4.5s-.66 3.3-1.861 4.5c-1.202 1.202-2.8 1.864-4.5 1.864-1.7 0-3.299-.662-4.502-1.864-1.202-1.202-1.864-2.8-1.864-4.5 0-1.7.662-3.298 1.864-4.5 1.203-1.202 2.802-1.864 4.501-1.864z"/>
    </defs>
    <g fill="none" fill-rule="evenodd" transform="translate(12 12)">
        <mask id="prefix__b" fill="#fff">
            <use xlink:href="#prefix__a"/>
        </mask>
        <use fill="#FFF" fill-rule="nonzero" xlink:href="#prefix__a"/>
        <g fill="#FFF" mask="url(#prefix__b)">
            <path d="M0 0H40V40H0z" transform="translate(-10 -10)"/>
        </g>
    </g>
</svg>
