<?xml version="1.0" encoding="UTF-8"?>
<svg width="590px" height="498px" viewBox="0 0 590 498" version="1.1" xmlns="http://www.w3.org/2000/svg" xmlns:xlink="http://www.w3.org/1999/xlink">
    <!-- Generator: Sketch 64 (93537) - https://sketch.com -->
    <title>Destination-America</title>
    <desc>Created with Sketch.</desc>
    <defs>
        <polygon id="path-1" points="-8.46253914e-14 1.91644486e-13 579.91453 1.91644486e-13 579.91453 203.133903 -8.46253914e-14 203.133903"></polygon>
    </defs>
    <g id="Symbols" stroke="none" stroke-width="1" fill="none" fill-rule="evenodd">
        <g id="Network-Logo/Centered/Color/Destination-America" transform="translate(-205.000000, 0.000000)">
            <g id="Destination-America" transform="translate(205.000000, 0.000000)">
                <rect id="Rectangle" fill-opacity="0" fill="#D8D8D8" x="0" y="0" width="589.74359" height="498.601399"></rect>
                <g id="Blue" fill="#170D26">
                    <path d="M294.764143,-3.09997405e-12 C200.327941,-3.09997405e-12 105.777066,10.5606488 13.6998372,31.3866574 C6.00508751,33.1258396 -8.80874523e-13,40.5894421 -8.80874523e-13,48.37856 L-8.80874523e-13,274.907034 C-8.80874523e-13,278.508629 1.27777778,281.826561 3.69525845,284.249326 C6.56206756,287.127811 10.6855922,288.455449 14.9471917,287.843945 C73.0088523,279.515402 132.441901,275.290677 191.619862,275.290677 C320.244811,275.290677 448.86742,294.882053 573.925824,333.518403 C575.360399,333.962499 576.914326,334.188034 578.309117,334.188034 C584.866504,334.188034 589.74359,329.275077 589.74359,322.504357 L589.74359,48.37856 C589.74359,40.587117 583.595747,33.1235145 575.905678,31.3866574 C483.828449,10.5606488 389.198006,-3.09997405e-12 294.764143,-3.09997405e-12 Z" id="Combined-Shape"></path>
                </g>
                <g id="Red" transform="translate(3.276353, 294.871795)">
                    <mask id="mask-2" fill="white">
                        <use xlink:href="#path-1"></use>
                    </mask>
                    <g id="Clip-5"></g>
                    <path d="M511.042503,141.137247 C510.58344,137.556943 507.871223,134.43535 503.60147,132.572275 C340.496004,61.5801636 173.872619,22.497923 8.35707301,16.4123472 C7.78792888,16.3911759 7.26562788,16.3817664 6.79485434,16.3817664 C4.91176017,16.3817664 0.501478684,16.3817664 0.0353894557,20.1455551 C-0.4400684,23.9987337 3.98660819,25.1161085 6.62621904,25.7818286 C146.541989,61.3378697 287.010509,120.102373 424.139112,200.447499 C427.101941,202.181194 430.790838,203.133903 434.528921,203.133903 C439.124232,203.133903 443.293272,201.764825 446.270153,199.278372 C466.408018,182.430713 486.873786,165.773596 507.091284,149.768085 C510.011954,147.460412 511.45238,144.315296 511.042503,141.137247 M576.239868,86.8948315 C565.661782,95.7145497 554.964025,104.753289 544.444602,113.759057 C541.333124,116.422636 536.595513,117.948718 531.440221,117.948718 C528.209071,117.948718 525.081168,117.334046 522.394409,116.175354 C392.559439,59.9670189 259.049827,23.9180396 125.575413,9.02696396 C121.748249,8.60540733 117.784987,8.16972032 117.953936,4.30270367 C118.120538,0.423911691 122.201126,0.334419223 126.145616,0.249636885 C134.447583,0.0824272733 142.871569,1.91644486e-13 151.185268,1.91644486e-13 C292.694146,1.91644486e-13 434.198331,23.7437648 571.767412,70.5718763 C576.225789,72.0932483 579.149545,74.9546522 579.787797,78.4236629 C580.343921,81.4664068 579.053338,84.5538969 576.239868,86.8948315" id="Fill-4" fill="#F53A4D" mask="url(#mask-2)"></path>
                </g>
                <path d="M491.452991,193.304843 L501.283203,170.37037 L511.111111,193.304843 L491.452991,193.304843 Z M536.491803,215.03249 L511.112401,157.121572 C509.34334,153.128292 506.223833,150.712251 501.853212,150.712251 L500.919015,150.712251 C496.550759,150.712251 493.32719,153.128292 491.558129,157.121572 L466.176362,215.03249 C465.658415,216.189131 465.242165,217.345773 465.242165,218.500024 C465.242165,222.705992 468.465735,226.068376 472.628231,226.068376 C475.955863,226.068376 478.661486,224.175691 480.011932,221.023605 L485.108625,208.936227 L517.145656,208.936227 L522.031859,220.497859 C523.491097,223.860243 525.983865,226.068376 529.730112,226.068376 C533.994305,226.068376 537.321937,222.600842 537.321937,218.292115 C537.321937,217.240623 537.00975,216.189131 536.491803,215.03249 L536.491803,215.03249 Z M458.689459,211.184589 C458.689459,213.681392 457.450971,215.659901 456.003326,216.90712 C449.491276,222.632017 441.84179,226.068376 430.267684,226.068376 C408.97603,226.068376 393.162393,209.518475 393.162393,188.597394 L393.162393,188.38913 C393.162393,167.676313 408.66582,150.712251 430.888104,150.712251 C441.738387,150.712251 449.077663,153.625582 455.072697,158.100895 C456.724798,159.35048 458.174793,161.639019 458.174793,164.450585 C458.174793,168.821766 454.659085,172.255758 450.318501,172.255758 C448.147034,172.255758 446.70174,171.425068 445.564305,170.696143 C441.120318,167.363917 436.467175,165.491906 430.7847,165.491906 C418.587825,165.491906 409.803255,175.692116 409.803255,188.180866 L409.803255,188.38913 C409.803255,200.880246 418.381019,211.286354 430.7847,211.286354 C437.503557,211.286354 441.945194,209.206079 446.494934,205.563823 C447.733422,204.522502 449.387873,203.793578 451.24913,203.793578 C455.279504,203.793578 458.689459,207.125804 458.689459,211.184589 L458.689459,211.184589 Z M376.780627,158.862956 L376.780627,217.91767 C376.780627,222.468301 373.162271,226.068376 368.588534,226.068376 C364.014797,226.068376 360.39886,222.468301 360.39886,217.91767 L360.39886,158.862956 C360.39886,154.312326 364.014797,150.712251 368.588534,150.712251 C373.162271,150.712251 376.780627,154.312326 376.780627,158.862956 L376.780627,158.862956 Z M330.911681,177.069846 C330.911681,182.838303 326.286721,186.752137 318.213841,186.752137 L303.062678,186.752137 L303.062678,167.094017 L317.890828,167.094017 C325.961261,167.094017 330.911681,170.418552 330.911681,176.874154 L330.911681,177.069846 Z M296.096154,150.712251 C291.754131,150.712251 288.319088,154.18287 288.319088,158.572797 L288.319088,214.929155 C288.319088,219.319082 291.754131,222.792023 296.096154,222.792023 C300.438177,222.792023 303.870923,219.319082 303.870923,214.929155 L303.870923,199.310207 L316.293104,199.310207 L331.43852,218.708532 C333.257072,221.055552 335.580778,222.792023 339.114555,222.792023 C342.850394,222.792023 346.487498,219.931954 346.487498,215.542027 C346.487498,213.092861 345.477191,211.458535 343.961731,209.520096 L333.156042,196.245848 C341.741353,192.673083 347.293447,185.731844 347.293447,174.500502 L347.293447,174.296212 C347.293447,167.556942 345.174099,161.941271 341.233903,157.959925 C336.588788,153.263562 329.622264,150.712251 320.635127,150.712251 L296.096154,150.712251 Z M275.213675,215.791259 C275.213675,219.703726 272.011128,222.792023 268.084894,222.792023 L227.47387,222.792023 C223.030718,222.792023 219.51567,219.291641 219.51567,214.864067 L219.51567,158.640206 C219.51567,154.212633 223.030718,150.712251 227.47387,150.712251 L267.567976,150.712251 C271.494209,150.712251 274.696756,153.903569 274.696756,157.816036 C274.696756,161.730844 271.494209,164.8168 267.567976,164.8168 L235.326337,164.8168 L235.326337,179.441138 L262.918056,179.441138 C266.844289,179.441138 270.046836,182.632456 270.046836,186.544924 C270.046836,190.459732 266.844289,193.548029 262.918056,193.548029 L235.326337,193.548029 L235.326337,208.685132 L268.084894,208.685132 C272.011128,208.685132 275.213675,211.87645 275.213675,215.791259 L275.213675,215.791259 Z M199.85755,158.528491 L199.85755,214.973474 C199.85755,219.338657 196.357168,222.792023 191.929594,222.792023 C187.605042,222.792023 184.102319,219.239396 184.102319,214.973474 L184.102319,179.54416 L170.201471,200.661397 C168.555472,203.096759 166.495046,204.620303 163.612792,204.620303 C160.730538,204.620303 158.670112,203.096759 157.021772,200.661397 L143.326966,179.848868 L143.326966,215.178921 C143.326966,219.442535 139.824243,222.792023 135.502032,222.792023 C131.175138,222.792023 127.777778,219.442535 127.777778,215.178921 L127.777778,158.528491 C127.777778,154.163308 131.27816,150.712251 135.705733,150.712251 L137.457095,150.712251 C140.854456,150.712251 143.223945,152.436625 144.666243,154.772725 L163.818835,185.534456 L183.074447,154.671156 C184.722788,152.032655 186.986915,150.712251 190.180574,150.712251 L191.929594,150.712251 C196.357168,150.712251 199.85755,154.163308 199.85755,158.528491 L199.85755,158.528491 Z M72.0797721,193.304843 L81.9088319,170.37037 L91.7378917,193.304843 L72.0797721,193.304843 Z M91.7376767,157.121572 C89.9710388,153.128292 86.8492691,150.712251 82.4811564,150.712251 L81.5446254,150.712251 C77.1765127,150.712251 73.9530489,153.128292 72.1840461,157.121572 L46.8054768,215.03249 C46.2851818,216.189131 45.8689459,217.345773 45.8689459,218.500024 C45.8689459,222.705992 49.0947746,226.068376 53.2547694,226.068376 C56.5822921,226.068376 59.2878259,224.175691 60.6382279,221.023605 L65.7371185,208.936227 L97.7707333,208.936227 L102.659141,220.497859 C104.115967,223.860243 106.611018,226.068376 110.354776,226.068376 C114.61883,226.068376 117.948718,222.600842 117.948718,218.292115 C117.948718,217.240623 117.636541,216.189131 117.116246,215.03249 L91.7376767,157.121572 Z M488.176638,122.077018 L488.176638,87.7947409 C488.176638,84.562634 490.848935,82.0322646 494.262329,82.0322646 L495.302762,82.0322646 C498.346815,82.0322646 500.07041,83.6323175 501.357071,85.1980836 L518.725791,106.794227 L518.725791,87.6095919 C518.725791,84.4666308 521.427056,81.9088319 524.746304,81.9088319 C528.067966,81.9088319 530.769231,84.4666308 530.769231,87.6095919 L530.769231,121.891869 C530.769231,125.123976 528.096934,127.656631 524.68354,127.656631 L524.35765,127.656631 C521.316012,127.656631 519.590003,126.056578 518.303342,124.490812 L500.217664,102.028355 L500.217664,122.077018 C500.217664,125.219979 497.516399,127.777778 494.197151,127.777778 C490.877903,127.777778 488.176638,125.219979 488.176638,122.077018 L488.176638,122.077018 Z M442.307692,107.13187 C442.307692,98.0015083 447.270109,93.3760684 453.774929,93.3760684 C460.345476,93.3760684 465.242165,98.0015083 465.242165,107.253514 L465.242165,107.372906 C465.242165,114.338168 460.338903,119.586895 453.834083,119.586895 C447.263537,119.586895 442.307692,114.284104 442.307692,107.253514 L442.307692,107.13187 Z M478.347578,106.482687 L478.347578,106.352539 C478.347578,92.417071 467.81074,81.9088319 453.838333,81.9088319 C440.023263,81.9088319 429.202279,92.7014683 429.202279,106.482687 L429.202279,106.610424 C429.202279,120.545892 439.739118,131.054131 453.711525,131.054131 C467.526595,131.054131 478.347578,120.261495 478.347578,106.482687 Z M406.267806,122.015301 L406.267806,87.6713082 C406.267806,84.4414871 409.147774,81.9088319 412.823112,81.9088319 C416.495851,81.9088319 419.373219,84.4414871 419.373219,87.6713082 L419.373219,122.015301 C419.373219,125.247408 416.495851,127.777778 412.823112,127.777778 C409.147774,127.777778 406.267806,125.247408 406.267806,122.015301 L406.267806,122.015301 Z M394.204241,92.7832632 L385.944959,92.7832632 L385.944959,121.968403 C385.944959,125.226815 383.357657,127.777778 380.058148,127.777778 C376.756303,127.777778 374.169001,125.226815 374.169001,121.968403 L374.169001,92.7832632 L365.909719,92.7832632 C362.871741,92.7832632 360.39886,90.3429109 360.39886,87.3448954 C360.39886,84.3468799 362.871741,81.9088319 365.909719,81.9088319 L394.204241,81.9088319 C397.244554,81.9088319 399.7151,84.3468799 399.7151,87.3448954 C399.7151,90.3429109 397.244554,92.7832632 394.204241,92.7832632 L394.204241,92.7832632 Z M342.378917,108.119658 L332.549858,108.119658 L337.464387,98.2905983 L342.378917,108.119658 Z M344.390701,86.5504135 C343.100667,83.5581989 340.764531,81.9088319 337.811524,81.9088319 L337.241563,81.9088319 C334.248683,81.9088319 331.889092,83.5581989 330.596711,86.5528462 L315.191351,122.637007 C314.862978,123.383845 314.529915,124.279076 314.529915,125.249721 C314.529915,128.504667 316.959871,131.054131 320.062991,131.054131 C322.48122,131.054131 324.517129,129.633437 325.513974,127.249396 L328.335632,120.377034 L346.40081,120.377034 L349.100501,126.930713 C350.221659,129.589649 352.224731,131.054131 354.73678,131.054131 C357.912612,131.054131 360.39886,128.446282 360.39886,125.118356 C360.39886,124.359355 360.206528,123.568729 359.803099,122.646738 L344.390701,86.5504135 Z M295.513733,124.490812 L277.428055,102.028355 L277.428055,122.077018 C277.428055,125.219979 274.72679,127.777778 271.407542,127.777778 C268.088294,127.777778 265.384615,125.219979 265.384615,122.077018 L265.384615,87.7947409 C265.384615,84.562634 268.059326,82.0322646 271.47272,82.0322646 L272.513153,82.0322646 C275.554792,82.0322646 277.280801,83.6323175 278.565048,85.1980836 L295.936183,106.794227 L295.936183,87.6095919 C295.936183,84.4666308 298.637447,81.9088319 301.956695,81.9088319 C305.278357,81.9088319 307.977208,84.4666308 307.977208,87.6095919 L307.977208,121.891869 C307.977208,125.123976 305.304911,127.656631 301.891517,127.656631 L301.568041,127.656631 C298.523989,127.656631 296.800394,126.056578 295.513733,124.490812 L295.513733,124.490812 Z M239.173789,122.015301 L239.173789,87.6713082 C239.173789,84.4414871 242.053186,81.9088319 245.725196,81.9088319 C249.399806,81.9088319 252.279202,84.4414871 252.279202,87.6713082 L252.279202,122.015301 C252.279202,125.247408 249.399806,127.777778 245.725196,127.777778 C242.053186,127.777778 239.173789,125.247408 239.173789,122.015301 L239.173789,122.015301 Z M223.836206,92.7832632 L215.574588,92.7832632 L215.574588,121.968403 C215.574588,125.226815 212.987287,127.777778 209.687777,127.777778 C206.385932,127.777778 203.798631,125.226815 203.798631,121.968403 L203.798631,92.7832632 L195.539349,92.7832632 C192.503706,92.7832632 190.02849,90.3429109 190.02849,87.3448954 C190.02849,84.3468799 192.503706,81.9088319 195.539349,81.9088319 L223.836206,81.9088319 C226.871848,81.9088319 229.344729,84.3468799 229.344729,87.3448954 C229.344729,90.3429109 226.871848,92.7832632 223.836206,92.7832632 L223.836206,92.7832632 Z M175.223879,116.790049 L175.223879,116.659208 C175.223879,115.038235 174.688269,113.909126 167.270185,111.905322 C158.990069,109.67618 152.13518,107.00848 152.13518,96.8925389 L152.13518,96.761698 C152.13518,88.017164 158.794674,81.9088319 168.329912,81.9088319 C173.635439,81.9088319 178.444435,83.3286981 182.623572,86.1223938 C183.855705,86.8856324 185.205074,88.5889872 185.205074,91.0192359 C185.205074,94.2248382 182.795979,96.7374682 179.717945,96.7374682 C178.678908,96.7374682 177.745613,96.4612485 176.787032,95.8700415 C173.573372,93.8807751 170.849347,92.9527738 168.205779,92.9527738 C165.447272,92.9527738 163.665737,94.0891513 163.665737,95.8482347 L163.665737,95.9766526 C163.665737,98.0531463 164.732359,98.9011892 172.237796,100.929223 C180.952377,103.323127 186.752137,106.746798 186.752137,115.680324 L186.752137,115.811165 C186.752137,125.071794 180.104136,131.054131 169.814907,131.054131 C163.773778,131.054131 157.778625,129.035789 152.935147,125.36982 C151.565089,124.352169 150.712251,122.561587 150.712251,120.703161 C150.712251,117.499982 153.121346,114.987352 156.197081,114.987352 C157.415421,114.987352 158.500434,115.350799 159.511886,116.097077 C162.914044,118.735702 166.339189,120.010189 170.001107,120.010189 C171.226343,120.010189 175.223879,119.780006 175.223879,116.790049 L175.223879,116.790049 Z M104.843305,121.918708 L104.843305,87.7655789 C104.843305,84.4805967 107.432451,81.9088319 110.739635,81.9088319 L135.17631,81.9088319 C138.149034,81.9088319 140.567441,84.3110042 140.567441,87.2637711 C140.567441,90.1840135 138.149034,92.5583076 135.17631,92.5583076 L116.572815,92.5583076 L116.572815,99.3605905 L132.341581,99.3605905 C135.314305,99.3605905 137.732712,101.765086 137.732712,104.717853 C137.732712,107.635772 135.314305,110.012389 132.341581,110.012389 L116.572815,110.012389 L116.572815,117.125979 L135.489721,117.125979 C138.462444,117.125979 140.883191,119.530474 140.883191,122.483241 C140.883191,125.40116 138.462444,127.777778 135.489721,127.777778 L110.739635,127.777778 C107.432451,127.777778 104.843305,125.20369 104.843305,121.918708 L104.843305,121.918708 Z M63.8888889,117.948718 L63.8888889,91.7378917 L72.310224,91.7378917 C80.0110894,91.7378917 85.1851852,97.0040967 85.1851852,104.844557 L85.1851852,104.977276 C85.1851852,112.737604 80.0110894,117.948718 72.310224,117.948718 L63.8888889,117.948718 Z M70.6093238,127.777778 C84.7485533,127.777778 95.014245,118.131918 95.014245,104.843305 L95.014245,104.717853 C95.014245,91.5012588 84.7485533,81.9088319 70.6093238,81.9088319 L58.3007548,81.9088319 C55.0032337,81.9088319 52.4216524,84.4805967 52.4216524,87.7655789 L52.4216524,121.918708 C52.4216524,125.20369 55.0032337,127.777778 58.3007548,127.777778 L70.6093238,127.777778 Z" id="Text" fill="#FFFFFF"></path>
            </g>
        </g>
    </g>
</svg>