<?xml version="1.0" encoding="UTF-8"?>
<svg width="799px" height="356px" viewBox="0 0 799 356" version="1.1" xmlns="http://www.w3.org/2000/svg" xmlns:xlink="http://www.w3.org/1999/xlink">
    <!-- Generator: Sketch 64 (93537) - https://sketch.com -->
    <title>AHC</title>
    <desc>Created with Sketch.</desc>
    <defs>
        <polygon id="path-1" points="-2.46592869e-13 -1.89817298e-13 272.350247 -1.89817298e-13 272.350247 281.582458 -2.46592869e-13 281.582458"></polygon>
    </defs>
    <g id="Symbols" stroke="none" stroke-width="1" fill="none" fill-rule="evenodd">
        <g id="Network-Logo/Centered/Color/AHC" transform="translate(-100.000000, -72.000000)">
            <g id="AHC" transform="translate(100.000000, 72.000000)">
                <rect id="box" fill-opacity="0" fill="#FFFFFF" fill-rule="nonzero" x="0" y="0" width="800" height="355.555556"></rect>
                <path d="M117.14308,69.2415882 L5.68434189e-13,350.824047 L99.2684318,350.824047 L113.56873,313.276804 L210.851894,313.276804 L225.544031,350.824047 L258.501929,350.824047 L258.501929,187.608649 L209.266433,69.2415882 L117.14308,69.2415882 Z M163.875738,180.028129 L189.260341,249.269718 L138.483176,249.269718 L163.875738,180.028129 Z" id="Fill-1" fill="#9E2729" fill-rule="nonzero"></path>
                <path d="M798.586318,280.14772 L721.699684,236.724544 C710.146404,257.439742 695.405816,271.781089 669.113398,271.781089 C638.437702,271.781089 616.9248,246.284958 616.9248,210.03318 L616.9248,209.236358 C616.9248,175.772733 637.6416,148.284547 669.113398,148.284547 C694.609713,148.284547 709.349578,162.227482 719.707613,182.147309 L796.593522,137.130489 C773.089278,94.5041344 731.65858,64.6254824 670.307913,64.6254824 C625.206584,64.6254824 585.48856,82.8682093 558.548811,112.81798 L558.548811,299.131391 C572.568773,324.220402 607.197404,351.80946 656.796673,355.105604 C656.796673,355.105604 663.075504,355.440153 666.722913,355.440153 C736.04186,355.440153 775.082071,321.578116 798.586318,280.14772 Z" id="Fill-2" fill="#9E2729" fill-rule="nonzero"></path>
                <g id="Group-6" transform="translate(272.350247, 0.000000)">
                    <g id="Fill-4-Clipped">
                        <mask id="mask-2" fill="white">
                            <use xlink:href="#path-1"></use>
                        </mask>
                        <g id="path-1"></g>
                        <polygon id="Fill-4" fill="#9E2729" fill-rule="nonzero" mask="url(#mask-2)" points="178.906757 245.809324 178.906757 178.254502 93.4427618 178.254502 93.4427618 245.887531 -2.46592869e-13 281.457182 -2.46592869e-13 5.40616933e-14 93.4427618 5.40616933e-14 93.4427618 98.0591296 178.906757 98.0591296 178.906757 5.40616933e-14 272.350247 5.40616933e-14 272.350247 281.582458"></polygon>
                    </g>
                </g>
                <polygon id="Fill-7" fill="#1A4278" fill-rule="nonzero" points="408.605538 240.037507 408.594604 240.037507 272.350247 291.399496 272.350247 346.207942 408.599707 295.157253 544.700493 346.207942 544.700493 291.399496"></polygon>
            </g>
        </g>
    </g>
</svg>