<?xml version="1.0" encoding="UTF-8"?>
<svg width="495px" height="496px" viewBox="0 0 495 496" version="1.1" xmlns="http://www.w3.org/2000/svg" xmlns:xlink="http://www.w3.org/1999/xlink">
    <!-- Generator: Sketch 64 (93537) - https://sketch.com -->
    <title>Food-Network</title>
    <desc>Created with Sketch.</desc>
    <defs>
        <polygon id="path-1" points="0 2.53544974 494.819048 2.53544974 494.819048 497.354497 0 497.354497"></polygon>
    </defs>
    <g id="Symbols" stroke="none" stroke-width="1" fill="none" fill-rule="evenodd">
        <g id="Network-Logo/Centered/Color/Food-Network" transform="translate(-250.000000, -2.000000)">
            <g id="Food-Network" transform="translate(250.000000, 0.000000)">
                <g id="Group-5" transform="translate(0.000000, 0.111111)">
                    <mask id="mask-2" fill="white">
                        <use xlink:href="#path-1"></use>
                    </mask>
                    <g id="Clip-4"></g>
                    <path d="M494.819048,249.945503 C494.819048,386.583069 384.049206,497.355556 247.408995,497.355556 C110.768783,497.355556 -0.00105820106,386.583069 -0.00105820106,249.945503 C-0.00105820106,113.305291 110.768783,2.53544974 247.408995,2.53544974 C384.049206,2.53544974 494.819048,113.305291 494.819048,249.945503" id="Fill-3" fill="#C41F40" mask="url(#mask-2)"></path>
                </g>
                <path d="M380.579365,367.404233 L373.417989,355.261376 L370.338624,358.72963 L370.338624,367.404233 L363.063492,367.404233 L363.063492,327.565608 L370.338624,327.565608 L370.338624,350.171429 L380.010582,338.250794 L388.804233,338.250794 L378.388889,350.002116 L389.584656,367.404233 L380.579365,367.404233 Z M346.306878,346.192593 C345.179894,345.078836 344.240741,344.457143 342.441799,344.457143 C340.214286,344.457143 337.751323,346.142328 337.751323,349.83545 L337.751323,367.404233 L330.47619,367.404233 L330.47619,338.250794 L337.579365,338.250794 L337.579365,341.052381 C338.978836,339.367196 341.780423,337.912169 344.912698,337.912169 C347.769841,337.912169 349.777778,338.639683 351.793651,340.655556 L346.306878,346.192593 Z M309.134921,345.753439 C308.293651,344.91746 307.177249,344.457143 305.724868,344.457143 C304.267196,344.457143 303.203704,344.91746 302.362434,345.753439 C300.846561,347.264021 300.677249,349.774603 300.677249,352.806349 C300.677249,355.819577 300.846561,358.398942 302.362434,359.912169 C303.203704,360.748148 304.267196,361.197884 305.724868,361.197884 C307.177249,361.197884 308.293651,360.748148 309.134921,359.912169 C310.648148,358.398942 310.814815,355.819577 310.814815,352.806349 C310.814815,349.774603 310.648148,347.264021 309.134921,345.753439 L309.134921,345.753439 Z M314.783069,364.163492 C312.989418,366.060317 310.02381,367.745503 305.724868,367.745503 C301.404762,367.745503 298.502646,366.060317 296.714286,364.163492 C294.079365,361.409524 293.402116,358.113228 293.402116,352.806349 C293.402116,347.541799 294.079365,344.240212 296.714286,341.496825 C298.502646,339.594709 301.404762,337.912169 305.724868,337.912169 C310.02381,337.912169 312.989418,339.594709 314.783069,341.496825 C317.417989,344.240212 318.084656,347.541799 318.084656,352.806349 C318.084656,358.113228 317.417989,361.409524 314.783069,364.163492 L314.783069,364.163492 Z M274.206349,367.404233 L268.21164,367.404233 L262.121693,349.107937 L256.018519,367.404233 L250.02381,367.404233 L241.055556,338.250794 L248.785714,338.250794 L253.492063,356.274603 L259.428571,338.250794 L264.746032,338.250794 L270.724868,356.274603 L275.420635,338.250794 L283.097884,338.250794 L274.206349,367.404233 Z M225.529101,367.404233 C219.60582,367.404233 217.089947,363.208466 217.089947,359.070899 L217.089947,344.634392 L214.015873,344.634392 L214.015873,339.094709 L217.089947,339.094709 L217.089947,330.47037 L224.359788,330.47037 L224.359788,339.094709 L229.507937,339.094709 L229.507937,344.634392 L224.359788,344.634392 L224.359788,358.615873 C224.359788,360.298413 225.150794,361.240212 226.880952,361.240212 L229.507937,361.240212 L229.507937,367.404233 L225.529101,367.404233 Z M195.296296,346.978307 C194.515873,345.242857 192.899471,343.962434 190.428571,343.962434 C187.968254,343.962434 186.346561,345.242857 185.560847,346.978307 C185.116402,348.044444 184.94709,348.830159 184.888889,350.115873 L195.973545,350.115873 C195.915344,348.830159 195.746032,348.044444 195.296296,346.978307 L195.296296,346.978307 Z M184.888889,355.102646 C184.888889,358.843386 187.187831,361.581481 191.280423,361.581481 C194.462963,361.581481 196.029101,360.697884 197.878307,358.843386 L202.291005,363.15291 C199.325397,366.118519 196.478836,367.745503 191.219577,367.745503 C184.330688,367.745503 177.727513,364.607937 177.727513,352.806349 C177.727513,343.295767 182.883598,337.912169 190.428571,337.912169 C198.539683,337.912169 203.134921,343.848677 203.134921,351.851323 L203.134921,355.102646 L184.888889,355.102646 Z M157.505291,367.404233 L157.505291,349.774603 C157.505291,345.806349 154.994709,344.457143 152.698413,344.457143 C150.410053,344.457143 147.828042,345.806349 147.828042,349.774603 L147.828042,367.404233 L140.555556,367.404233 L140.555556,338.250794 L147.661376,338.250794 L147.661376,340.938624 C149.574074,338.922751 152.253968,337.912169 154.936508,337.912169 C157.846561,337.912169 160.201058,338.867196 161.825397,340.488889 C164.169312,342.846032 164.780423,345.578836 164.780423,348.766667 L164.780423,367.404233 L157.505291,367.404233 Z" id="Fill-6" fill="#FEFEFE"></path>
                <path d="M40.0031746,385.008201 C34.8470899,377.098148 30.1328042,368.902381 25.889418,360.399735 C29.1460317,358.928836 37.2306878,354.645767 42.0375661,341.547884 C42.6777778,339.801852 44.0984127,335.341534 44.5851852,332.711905 C45.0719577,330.084921 64.5904762,223.886508 64.5904762,223.886508 L48.2015873,223.886508 L56.2518519,196.68545 L69.0984127,196.68545 C69.0984127,196.68545 71.6195767,181.600794 73.8365079,171.524074 C75.2703704,165.000265 78.3973545,157.203968 79.3444444,155.045238 C85.4185185,141.180159 103.235979,118.032011 138.024339,117.709259 C148.540212,117.611376 155.669841,120.182804 155.669841,120.182804 L146.704233,148.968519 C146.704233,148.968519 143.206878,146.452646 135.767725,146.452646 C131.593122,146.452646 124.513757,147.418254 118.394709,152.230423 C111.997884,157.259524 108.608995,164.825661 106.407937,174.809788 C105.130159,180.614021 102.982011,196.682804 102.982011,196.682804 L122.595767,196.682804 L114.511111,223.883862 L98.4767196,223.883862 C98.4767196,223.883862 85.431746,296.333598 83.6619048,306.190741 C83.0375661,309.677513 81.5613757,317.16164 79.8444444,326.16164 C79.0666667,330.233069 78.2359788,334.600794 77.0402116,338.989683 C74.5587302,348.087566 70.8814815,357.323016 65.4291005,364.516138 C56.1354497,376.772751 45.9396825,382.399735 40.0031746,385.008201 M264.651323,226.029365 C268.286243,215.013492 276.569312,206.706614 287.849735,206.706614 C295.407937,206.706614 304.471429,210.598148 303.783598,225.886508 C303.098413,241.172222 298.024339,263.42619 293.119577,271.024074 C288.21746,278.621958 281.788889,283.325661 273.222751,283.325661 C264.653968,283.325661 259.389418,279.312434 257.833862,271.442063 C255.778307,261.053175 260.934392,237.285979 264.651323,226.029365 M241.310053,296.394444 C247.561376,301.18545 255.479365,305.121958 270.116931,305.121958 C286.894709,305.121958 300.553439,298.058466 309.355026,290.039947 C316.725397,283.323016 320.101058,277.423545 323.183069,270.833598 C328.365608,259.727778 333.767725,233.399735 332.249206,217.968519 C330.008466,195.209259 311.9,184.915608 291.812698,184.915608 C279.865608,184.915608 269.106349,187.87328 260.331217,193.50291 C241.487302,205.592857 237.370899,219.346825 234.386772,229.905026 C231.4,240.463228 227.661905,259.979101 228.759788,271.561111 C229.942328,284.047884 235.056085,291.600794 241.310053,296.394444 M154.860317,226.029365 C158.495238,215.013492 166.778307,206.706614 178.05873,206.706614 C185.616931,206.706614 194.680423,210.598148 193.992593,225.886508 C193.307407,241.172222 188.233333,263.42619 183.328571,271.024074 C178.426455,278.621958 171.997884,283.325661 163.431746,283.325661 C154.862963,283.325661 149.601058,279.312434 148.042857,271.442063 C145.989947,261.053175 151.143386,237.285979 154.860317,226.029365 M124.595767,229.905026 C121.608995,240.463228 117.873545,259.979101 118.968783,271.561111 C120.151323,284.047884 125.267725,291.600794 131.519048,296.394444 C137.773016,301.18545 145.68836,305.121958 160.325926,305.121958 C177.103704,305.121958 190.762434,298.058466 199.564021,290.039947 C206.937037,283.323016 210.312698,277.423545 213.392063,270.833598 C218.574603,259.727778 223.97672,233.399735 222.458201,217.968519 C220.220106,195.209259 202.108995,184.915608 182.021693,184.915608 C170.074603,184.915608 159.315344,187.87328 150.540212,193.50291 C131.696296,205.592857 127.58254,219.346825 124.595767,229.905026 M412.701587,225.76746 C412.50582,230.812434 412.02963,234.352116 411.095767,239.979101 C408.942328,252.915608 407.325926,257.860053 407.013757,258.860053 C407.013757,258.860053 404.056085,271.309788 397.000529,277.561111 C393.675132,280.505556 389.098413,283.775397 381.839153,283.775397 C375.95291,283.775397 371.799471,282.084921 368.757143,277.920899 C367.27037,275.886508 365.431746,270.719841 365.749206,264.042593 C365.873545,261.420899 366.336508,255.338889 368.360317,244.899735 C370.381481,234.460582 372.910582,224.288624 376.796825,218.309788 C380.683069,212.333598 385.040212,209.407672 388.532275,207.867989 C389.780952,207.317725 392.947619,206.399735 396.606349,206.399735 C403.706878,206.399735 413.339153,209.468519 412.701587,225.76746 M438.608995,138.076984 C435.418519,141.521429 432.421164,145.76746 429.148677,153.412963 C425.87619,161.058466 422.077249,177.296561 421.728042,178.815079 C421.381481,180.328307 418.836508,190.772751 418.061376,197.383862 C411.064021,185.407672 395.450265,185.016138 393.280952,184.889153 C384.389418,184.370635 375.905291,186.603439 369.868254,189.756878 C359.564021,195.137831 353.077249,204.285979 348.693651,215.772751 C344.175132,227.614021 341.24127,243.293915 338.860317,256.47381 C337.108995,266.174868 336.884127,275.352116 338.415873,283.016138 C341.714815,299.539947 356.913228,305.21455 369.331217,305.643122 C381.746561,306.071693 388.659259,302.569048 393.093122,299.643122 C397.526984,296.719841 403.651323,291.931481 407.463492,284.799206 C409.907937,292.817725 413.426455,297.235714 421.310053,301.587566 C424.198942,303.180159 425.77037,303.947354 429.212169,304.722487 C435.492593,306.140476 439.788889,305.746296 439.788889,305.746296 L447.616931,280.66164 C444.566667,280.465873 441.497884,278.241005 439.735979,275.762169 C436.225397,270.823016 437.667196,260.566402 438.598413,255.177513 C439.791534,248.288624 442.02963,235.534656 442.712169,231.672222 C443.394709,227.812434 448.974074,194.799206 449.574603,191.420899 C450.172487,188.045238 452.262434,177.735714 454.556085,171.653704 C457.360317,164.206614 460.262434,160.447354 463.495238,157.428836 C467.844444,153.362698 472.254497,152.092857 474.508466,151.706614 C470.550794,142.582275 466.061376,133.743651 461.077249,125.230423 C450.587831,127.315079 443.934392,132.325661 438.608995,138.076984" id="Fill-8" fill="#FEFEFE"></path>
            </g>
        </g>
    </g>
</svg>