<?xml version="1.0" encoding="UTF-8"?>
<svg width="819px" height="394px" viewBox="0 0 819 394" version="1.1" xmlns="http://www.w3.org/2000/svg" xmlns:xlink="http://www.w3.org/1999/xlink">
    <!-- Generator: Sketch 64 (93537) - https://sketch.com -->
    <title>TLC</title>
    <desc>Created with Sketch.</desc>
    <g id="Symbols" stroke="none" stroke-width="1" fill="none" fill-rule="evenodd">
        <g id="Network-Logo/Centered/Color/TLC" transform="translate(-90.000000, -53.000000)">
            <g id="TLC" transform="translate(90.000000, 53.000000)">
                <g id="T">
                    <polygon id="Clip-3" points="0.000274805229 0.600526755 256.660115 0.600526755 256.660115 394.000783 0.000274805229 394.000783"></polygon>
                    <path d="M229.517602,0.599975813 L27.1565276,0.599975813 C12.2194893,0.599975813 0.000274805229,12.849482 0.000274805229,27.7800096 L0.000274805229,366.792514 C0.000274805229,381.756098 12.2194893,394.000783 27.1565276,394.000783 L229.517602,394.000783 C244.407924,394.000783 256.660115,381.756098 256.660115,366.792514 L256.660115,27.7800096 C256.660115,12.849482 244.407924,0.599975813 229.517602,0.599975813 L229.517602,0.599975813 Z" id="Fill-2" fill="#E81F2E"></path>
                    <path d="M202.838178,141.889735 C202.838178,143.634155 201.388539,145.05834 199.638717,145.05834 L157.10986,145.05834 C149.663325,145.05834 143.646464,151.094598 143.646464,158.555041 L143.646464,292.537243 C143.646464,294.296125 142.240149,295.70998 140.485517,295.70998 L110.897238,295.70998 C109.142607,295.70998 107.730795,294.296125 107.730795,292.537243 L107.730795,158.559861 C107.730795,151.099418 101.73798,145.067981 94.2722088,145.067981 L49.9083395,145.067981 C48.1825627,145.067981 46.7425833,143.638975 46.7425833,141.889735 L46.7425833,112.233905 C46.7425833,110.504636 48.1825627,109.089404 49.9083395,109.089404 L199.638717,109.089404 C201.392661,109.089404 202.847068,110.504636 202.838178,112.229773 L202.838178,141.889735 Z" id="Path" fill="#FFFFFF"></path>
                </g>
                <g id="L" transform="translate(280.988347, 0.000000)">
                    <polygon id="Clip-6" points="0.0543427341 0.600526755 256.71487 0.600526755 256.71487 394.001196 0.0543427341 394.001196"></polygon>
                    <path d="M27.2112825,0.60038902 C12.2735573,0.60038902 0.0543427341,12.8492065 0.0543427341,27.7797341 L0.0543427341,366.792927 C0.0543427341,381.755822 12.2735573,394.001196 27.2112825,394.001196 L229.57167,394.001196 C244.461992,394.001196 256.71487,381.755822 256.71487,366.792927 L256.71487,27.7797341 C256.71487,12.8492065 244.461992,0.60038902 229.57167,0.60038902 L27.2112825,0.60038902 Z" id="Fill-5" fill="#E81F2E"></path>
                    <path d="M185.64268,292.522505 C185.64268,294.281387 184.269341,295.715214 182.490664,295.715214 L115.385288,295.715214 C87.0604264,295.715214 74.8020522,277.525864 74.8020522,253.891831 L74.8020522,112.229498 C74.8020522,110.49954 76.2282913,109.084996 77.9774266,109.084996 L107.532729,109.084996 C109.28736,109.084996 110.693676,110.504361 110.693676,112.229498 L110.693676,242.460474 C110.693676,251.994524 118.384101,259.708401 127.910224,259.708401 L182.490664,259.708401 C184.27415,259.708401 185.64268,261.175284 185.64268,262.914883 L185.64268,292.522505 Z" id="Path" fill="#FFFFFF"></path>
                </g>
                <g id="C" transform="translate(561.976694, 0.000000)">
                    <polygon id="Clip-9" points="0.161585475 0.600526755 256.821288 0.600526755 256.821288 394.001059 0.161585475 394.001059"></polygon>
                    <path d="M229.6796,0.600251284 L27.3185253,0.600251284 C12.3808,0.600251284 0.161585475,12.8497575 0.161585475,27.7795964 L0.161585475,366.792789 C0.161585475,381.755685 12.3808,394.001059 27.3185253,394.001059 L229.6796,394.001059 C244.568547,394.001059 256.821426,381.755685 256.821426,366.792789 L256.821426,27.7795964 C256.821426,12.8497575 244.568547,0.600251284 229.6796,0.600251284 L229.6796,0.600251284 Z" id="Fill-8" fill="#E81F2E"></path>
                    <path d="M174.278179,159.152399 C164.046493,150.004697 150.515771,144.413324 135.731936,144.413324 C103.763157,144.413324 77.8126122,170.359937 77.8126122,202.413741 C77.8126122,234.402121 103.763157,260.420356 135.731936,260.420356 C150.515771,260.420356 164.06092,254.809012 174.278179,245.643403 L174.244515,245.700563 C175.498314,244.486425 177.620497,244.486425 178.850251,245.700563 L199.775982,266.648066 C200.877264,267.789893 200.925355,269.610756 199.933308,270.829716 C183.189425,286.638996 160.580512,296.388603 135.721631,296.388603 C83.9112272,296.388603 41.912057,254.273909 41.912057,202.413741 C41.912057,150.477818 83.9112272,108.38654 135.721631,108.38654 C160.580512,108.38654 183.140648,118.117552 199.933308,133.97504 C200.925355,135.236697 200.877264,137.024504 199.775982,138.171152 L178.850251,159.152399 C177.620497,160.371359 175.498314,160.371359 174.244515,159.123475 L174.278179,159.152399 Z" id="Path" fill="#FFFFFF"></path>
                </g>
            </g>
        </g>
    </g>
</svg>