<?xml version="1.0" encoding="UTF-8"?>
<svg width="503px" height="500px" viewBox="0 0 503 500" version="1.1" xmlns="http://www.w3.org/2000/svg" xmlns:xlink="http://www.w3.org/1999/xlink">
    <!-- Generator: Sketch 64 (93537) - https://sketch.com -->
    <title>Science</title>
    <desc>Created with Sketch.</desc>
    <g id="Symbols" stroke="none" stroke-width="1" fill="none" fill-rule="evenodd">
        <g id="Network-Logo/Centered/Color/Science" transform="translate(-249.000000, 0.000000)" fill="#519ED4">
            <g id="Science" transform="translate(249.000000, 0.000000)">
                <path d="M430.029162,326.617179 L468.92895,326.617179 L468.92895,53.552492 L430.029162,53.552492 L430.029162,326.617179 Z M408.181336,133.085896 L368.748674,133.085896 L368.748674,118.78526 C368.748674,111.110286 367.235846,104.460233 362.867346,98.8303287 C358.491387,93.204666 352.917527,90.3865323 345.462622,90.3865323 C335.688118,90.3865323 329.011209,93.3966066 325.79798,99.4056204 C322.580488,105.419406 320.790032,113.029162 320.790032,122.23913 L320.790032,261.930011 C320.790032,269.862672 322.882627,276.511665 326.352701,281.884942 C329.823841,287.257688 336.233248,289.943266 345.237216,289.943266 C347.803537,289.943266 350.65974,289.50053 353.617723,288.601273 C356.570376,287.707317 359.314677,286.23807 361.762166,284.187169 C364.202728,282.14316 365.544504,279.330329 367.086641,275.744433 C368.629844,272.164369 368.748674,267.686108 368.748674,262.312831 L368.748674,249.204666 L408.181336,249.204666 L408.181336,265.767232 C408.181336,274.209968 407.200315,282.268293 403.988685,289.943266 C400.771193,297.61877 396.648881,304.335101 390.996689,310.091198 C385.337569,315.847826 378.872211,320.45334 371.291548,323.907211 C363.703958,327.360551 355.616532,329.088547 346.879001,329.088547 C339.418767,329.088547 331.877004,328.062566 324.163123,326.018028 C316.449242,323.972959 309.526678,320.45334 303.355467,315.464475 C297.184788,310.47561 291.978078,303.891835 287.994846,295.699894 C284.00522,287.514846 281.890244,277.153765 281.890244,264.615589 L281.890244,114.180806 C281.890244,105.226935 283.569329,96.9109226 286.654136,89.2359491 C289.740008,81.5604454 294.177248,74.9103924 299.836368,69.2794274 C305.48856,63.6553552 312.272577,59.2423118 320.118611,56.0397667 C327.95825,52.8441145 336.653685,51.242842 346.169213,51.242842 C355.166254,51.242842 363.533438,52.8441145 371.246787,56.0397667 C378.960668,59.2423118 385.647701,63.7152704 391.306821,69.471368 C396.959014,75.2279958 400.769062,82.135737 403.986554,90.195122 C407.198184,98.2539767 408.181336,107.020679 408.181336,116.482503 L408.181336,133.085896 Z M261.641039,133.085896 L222.741251,133.085896 L222.741251,123.390244 C222.741251,114.438494 221.078685,106.696182 216.835411,100.172853 C212.593735,93.6489926 205.687158,90.3865323 195.659539,90.3865323 C190.260461,90.3865323 185.939388,91.4125133 182.468248,93.4565217 C178.997108,95.5074231 176.355119,98.1283139 174.426649,101.323966 C172.498179,104.526511 171.176652,108.231707 170.405583,112.45281 C169.634515,116.674443 169.262569,121.087487 169.262569,125.693531 C169.262569,131.065748 169.462929,135.610817 169.847664,139.316013 C170.233998,143.028102 171.201697,146.224284 172.744366,148.910392 C174.287036,151.597561 176.536829,153.966066 179.495345,156.010604 C182.448531,158.061506 186.498905,160.105514 191.645933,162.151113 L221.729857,174.04719 C230.467922,177.374867 237.542354,181.279427 242.942497,185.752386 C248.341575,190.231707 252.517707,195.478261 255.477288,201.486744 C258.430475,207.50106 260.424488,214.408802 261.454533,222.209438 C262.47925,230.016967 262.998269,238.90403 262.998269,248.88123 C262.998269,260.393955 261.840867,271.079533 259.526063,280.925769 C257.212325,290.777306 253.416132,299.220042 248.149207,306.253446 C242.875888,313.293743 235.867532,318.8579 227.128934,322.948038 C218.385541,327.037116 207.712611,329.088547 195.117606,329.088547 C185.602611,329.088547 176.731328,327.420467 168.505888,324.099152 C160.272988,320.776776 153.20495,316.231707 147.293248,310.47561 C141.375151,304.718982 136.627245,297.877519 133.155573,289.943266 C129.684433,282.017497 127.889714,273.442206 127.889714,264.231707 L127.889714,249.204666 L166.789502,249.204666 L166.789502,261.930011 C166.789502,269.09544 169.190631,275.552492 173.432306,281.30912 C177.675581,287.065217 184.950374,289.943266 194.97746,289.943266 C201.661296,289.943266 206.93728,288.984093 210.667929,287.065217 C214.392185,285.146872 217.259578,282.460233 219.187516,279.006893 C221.115986,275.552492 222.351188,271.272004 222.868608,266.150583 C223.381233,261.035525 223.649801,255.40509 223.649801,249.265111 C223.649801,242.104984 223.394555,236.216861 222.882463,231.611877 C222.363977,227.006893 221.275848,223.301166 219.606355,220.483033 C217.931532,217.670201 215.618327,215.368505 212.665141,213.574761 C209.706625,211.788441 205.783608,209.869565 200.902484,207.818664 L172.747564,196.305408 C155.777664,189.397667 144.400276,180.253446 138.615398,168.866914 C132.829987,157.485154 129.937548,143.220573 129.937548,126.076882 C129.937548,115.847296 131.346999,106.121421 134.179756,96.9109226 C137.006119,87.7004242 141.181718,79.7730647 146.714014,73.1171792 C152.240448,66.4676564 159.248804,61.1611877 167.734287,57.1914104 C176.219236,53.2279958 186.114703,51.242842 197.431877,51.242842 C207.199987,51.242842 216.136813,53.0360551 224.237028,56.6161188 C232.33671,60.2014846 239.277924,64.9321315 245.063335,70.8149523 C250.848213,76.7036055 254.606039,83.2873807 257.691379,90.578473 C260.776185,97.8706257 261.641039,105.353659 261.641039,113.029162 L261.641039,133.085896 Z M117.209857,0 L0,117.436373 L0,500 L387.187707,500 L502.5,386.068929 L502.5,0 L117.209857,0 Z" id="Fill-1"></path>
            </g>
        </g>
    </g>
</svg>