<?xml version="1.0" encoding="UTF-8"?>
<svg width="894px" height="304px" viewBox="0 0 894 304" version="1.1" xmlns="http://www.w3.org/2000/svg" xmlns:xlink="http://www.w3.org/1999/xlink">
    <!-- Generator: Sketch 64 (93537) - https://sketch.com -->
    <title>Discovery-Family</title>
    <desc>Created with Sketch.</desc>
    <defs>
        <polygon id="path-1" points="0.205898162 0.005821875 378.94297 0.005821875 378.94297 80.6962276 0.205898162 80.6962276"></polygon>
    </defs>
    <g id="Symbols" stroke="none" stroke-width="1" fill="none" fill-rule="evenodd">
        <g id="Network-Logo/Centered/Color/Discovery-Family" transform="translate(-53.000000, -98.000000)">
            <g id="Discovery-Family" transform="translate(53.000000, 98.000000)">
                <g id="Discovery" transform="translate(234.000000, 0.000000)">
                    <mask id="mask-2" fill="white">
                        <use xlink:href="#path-1"></use>
                    </mask>
                    <g id="Clip-2"></g>
                    <path d="M368.342779,14.978058 L356.953015,47.9675862 L346.322456,14.978058 L335.46751,14.978058 L351.977691,59.6629104 L351.846095,59.9738745 C351.846095,59.9738745 348.522464,69.0875135 345.514324,71.293308 C343.191157,72.496158 337.767058,72.4056026 335.717204,72.2637893 L335.717204,80.6871565 C339.298965,80.6854479 347.73289,80.9143995 350.445783,79.1733424 C353.850397,76.9914682 354.611289,76.0517416 356.942892,71.2693877 C359.47695,66.0633026 378.94297,14.978058 378.94297,14.978058 L368.342779,14.978058 Z M315.159616,22.4189838 L315.159616,14.9797666 L304.977832,14.9797666 L304.977832,59.984126 L315.159616,59.984126 L315.159616,42.8486393 C315.159616,39.8415143 315.434617,37.1949026 316.254559,35.014737 C319.318373,26.8305729 327.865336,24.4983424 332.288971,23.8388252 L328.800002,15.2360557 C325.246922,15.8562752 318.991071,17.5939151 315.159616,22.4189838 L315.159616,22.4189838 Z M139.860838,52.0323307 C132.037651,52.0323307 126.568,45.5601776 126.568,37.4682776 C126.568,29.538694 131.951608,23.0648323 139.358076,23.0648323 C144.486928,23.0648323 147.770069,25.3645995 150.88281,28.6878143 L157.192648,21.7868041 C153.069321,17.1889784 147.854425,14.0366229 139.440745,14.0366229 C126.149594,14.0366229 116.38959,24.7717174 116.38959,37.6357198 C116.38959,50.4980135 126.149594,60.976819 139.358076,60.976819 C148.018076,60.976819 153.153677,57.4810362 157.528385,52.5449088 L151.385572,46.4127659 C148.188475,49.7325635 144.659015,52.0323307 139.860838,52.0323307 L139.860838,52.0323307 Z M287.268107,33.2497596 C287.106143,31.6026752 286.73835,31.1362291 286.171477,29.6822159 C285.614727,28.2367455 284.853834,26.9706776 283.905671,25.8959721 C282.945699,24.8161409 281.81364,23.9772213 280.495997,23.3757963 C279.180041,22.7812057 277.675128,22.4839104 275.99138,22.4839104 C272.849958,22.4839104 270.25685,23.5774104 268.205309,25.7627018 C266.162204,27.9548276 264.908672,29.7283479 264.459897,33.2497596 L287.268107,33.2497596 Z M296.020898,29.0039041 C296.91676,31.9307252 297.367222,35.014737 297.367222,38.2508135 C297.367222,38.707008 297.355412,39.1751627 297.326731,39.6569862 C297.301424,40.1405182 297.255872,40.637719 297.200197,41.1485885 L264.547628,41.1485885 C265.111127,44.8408596 266.551929,47.6719995 268.881846,49.6232135 C271.213449,51.5880963 274.027569,52.5722463 277.341078,52.5722463 C279.8667,52.5722463 282.053211,52.1126346 283.905671,51.2053713 C285.759819,50.2963995 287.57685,48.9636963 289.368574,47.2004276 L295.352798,52.5722463 C293.216901,55.1283026 290.677781,57.1734893 287.732065,58.7026807 C284.788037,60.2387065 281.267012,61.0109909 277.168991,61.0109909 C273.973581,61.0109909 270.987374,60.4334862 268.205309,59.3023971 C265.435054,58.1678909 263.019095,56.5754815 260.965867,54.5285862 C258.922761,52.4833995 257.308185,50.0298588 256.133948,47.1594213 C254.952962,44.292401 254.364156,41.1195424 254.364156,37.6528057 L254.364156,37.4802377 C254.364156,34.2475784 254.900661,31.2079901 255.963548,28.3648901 C257.028123,25.5217901 258.529662,23.0374948 260.466478,20.908587 C262.399921,18.7745534 264.684285,17.1035487 267.322944,15.8767784 C269.959917,14.6568424 272.876952,14.0468745 276.075736,14.0468745 C279.60857,14.0468745 282.711189,14.7029745 285.376842,16.0066315 C288.040809,17.3137057 290.256001,19.0735573 292.027479,21.2878948 C293.797271,23.507358 295.12841,26.077083 296.020898,29.0039041 L296.020898,29.0039041 Z M230.661772,48.0598502 L218.71357,14.9797666 L207.769207,14.9797666 L226.035682,60.3275534 L235.203506,60.3275534 L253.382251,14.9797666 L242.69433,14.9797666 L230.661772,48.0598502 Z M197.17239,37.5707932 C197.17239,35.5785729 196.834966,33.7059541 196.160117,31.9461026 C195.486955,30.1828338 194.547228,28.6519338 193.344309,27.3397338 C192.132955,26.0360768 190.709024,24.9955432 189.050582,24.2318018 C187.397202,23.4629346 185.556552,23.0802096 183.537066,23.0802096 C181.515893,23.0802096 179.67693,23.4629346 178.028611,24.2318018 C176.37017,24.9955432 174.954674,26.0189909 173.775375,27.3004362 C172.599451,28.5767557 171.69684,30.0803182 171.084415,31.8145409 C170.461867,33.5470549 170.156497,35.4094221 170.156497,37.3999338 L170.156497,37.5707932 C170.156497,39.5049213 170.493922,41.348494 171.165397,43.106637 C171.836871,44.8716143 172.776599,46.416183 173.986266,47.7557205 C175.190871,49.0867151 176.619864,50.1375002 178.278305,50.9012416 C179.931685,51.6718174 181.741968,52.0579596 183.704091,52.0579596 C185.780939,52.0579596 187.646896,51.6718174 189.300277,50.9012416 C190.958718,50.1375002 192.374214,49.1003838 193.551825,47.7967268 C194.72775,46.4896526 195.625299,44.9724213 196.244473,43.2330729 C196.860273,41.5005588 197.17239,39.6672377 197.17239,37.7416526 L197.17239,37.5707932 Z M205.58607,28.3170495 C206.765369,31.1362291 207.352487,34.1604401 207.352487,37.3999338 L207.352487,37.5707932 C207.352487,40.7504862 206.748498,43.762737 205.542205,46.6007112 C204.334225,49.440394 202.682532,51.9315237 200.578691,54.0604315 C198.474849,56.1944651 195.959349,57.8791385 193.049063,59.1315377 C190.128654,60.3822284 186.958551,61.0109909 183.537066,61.0109909 C180.16957,61.0109909 177.041644,60.3993143 174.156665,59.172544 C171.26325,57.9543166 168.766308,56.2884377 166.662467,54.188576 C164.556938,52.0852971 162.920429,49.6146705 161.739443,46.7784049 C160.558457,43.9353049 159.971339,40.9213455 159.971339,37.7416526 L159.971339,37.5707932 C159.971339,34.3295909 160.575329,31.2865854 161.783308,28.4469026 C162.987914,25.610637 164.644668,23.1229245 166.746823,20.9957252 C168.852352,18.859983 171.35098,17.1701838 174.237647,15.924619 C177.127688,14.667094 180.282607,14.0468745 183.704091,14.0468745 C187.12895,14.0468745 190.285556,14.6568424 193.172223,15.8767784 C196.060576,17.1035487 198.559205,18.7745534 200.66136,20.908587 C202.765201,23.0374948 204.408459,25.5081213 205.58607,28.3170495 L205.58607,28.3170495 Z M107.309497,37.6955205 C105.993541,36.7028276 104.518996,35.8656166 102.890923,35.178762 C101.261162,34.5004502 99.6398377,33.904151 98.0100774,33.3932815 C96.7194286,32.937087 95.4743322,32.5116471 94.2663525,32.1135448 C93.0600599,31.7154424 91.9937985,31.2746252 91.0675682,30.7945104 C90.141338,30.3092698 89.3973169,29.7727713 88.8405665,29.1713463 C88.2753805,28.5767557 87.9970053,27.8796495 87.9970053,27.0817362 L87.9970053,26.9177112 C87.9970053,25.610637 88.5419458,24.5256799 89.6385755,23.6765088 C90.7318308,22.8256291 92.262051,22.4001893 94.2241745,22.4001893 C96.0783221,22.4001893 98.0944335,22.7812057 100.282631,23.5483643 C102.470829,24.3138143 104.630346,25.3543479 106.764556,26.6597135 L110.80184,19.3264291 C108.449991,17.737437 105.8417,16.4918721 102.975279,15.5829002 C100.115606,14.667094 97.2795533,14.2160252 94.4755557,14.2160252 C92.2873578,14.2160252 90.2273812,14.5304065 88.2922517,15.1557518 C86.355435,15.7810971 84.6716868,16.6866518 83.242694,17.8826674 C81.810327,19.0735573 80.6867034,20.508776 79.8768846,22.1814893 C79.0620044,23.8644541 78.6554079,25.7814963 78.6554079,27.936033 L78.6554079,28.1051838 C78.6554079,30.2665549 79.0738143,32.0844987 79.9190627,33.567558 C80.7592497,35.0403659 81.8406952,36.2756791 83.1566508,37.2683721 C84.4776677,38.2678995 85.9640226,39.0777729 87.6157156,39.7014096 C89.2707828,40.3250463 90.9140401,40.8683791 92.5421133,41.3194479 C93.832762,41.7175502 95.0795456,42.1019838 96.2875253,42.4710401 C97.4904436,42.8400963 98.5567051,43.2655362 99.4829353,43.7507768 C100.409166,44.2308916 101.138003,44.784476 101.67282,45.4115299 C102.202577,46.0368752 102.470829,46.7784049 102.470829,47.627576 L102.470829,47.7967268 C102.470829,49.276369 101.866839,50.4518815 100.660547,51.3318073 C99.4576285,52.2134416 97.7586961,52.6525502 95.5704982,52.6525502 C93.2709502,52.6525502 90.8701749,52.1843955 88.3766078,51.244669 C85.8779794,50.3100682 83.4232161,48.9295245 81.0089438,47.1167065 L76.4688971,54.1031463 C79.2712076,56.3174838 82.3130895,57.9987401 85.6012913,59.1315377 C88.8776832,60.2694612 92.1186456,60.8332971 95.319117,60.8332971 C97.6169778,60.8332971 99.7781818,60.539419 101.799355,59.9397026 C103.817153,59.3416948 105.57176,58.4651862 107.056428,57.2982166 C108.54447,56.1346643 109.708585,54.672108 110.550459,52.9088393 C111.39402,51.1506963 111.81074,49.0747549 111.81074,46.6878495 L111.81074,46.5169901 C111.81074,44.4700948 111.39402,42.7392893 110.550459,41.3194479 C109.708585,39.8961893 108.627139,38.6882135 107.309497,37.6955205 L107.309497,37.6955205 Z M59.3513521,59.984126 L69.5348236,59.984126 L69.5348236,14.9814752 L59.3513521,14.9814752 L59.3513521,59.984126 Z M53.4531718,29.7351823 C53.4531718,46.6007112 40.6664703,59.6304471 22.1621105,59.6304471 L4.25667932,59.6304471 C7.86880862,57.187158 10.8853837,53.9271612 13.0482747,50.0896596 L22.1621105,50.0896596 C34.5270314,50.0896596 42.6032869,41.659458 42.6032869,29.9026245 C42.6032869,18.1509166 34.5270314,9.54472992 22.1621105,9.54472992 L10.5530205,9.54472992 L10.5530205,18.3115245 C8.8490268,16.1672393 6.85990935,14.2587401 4.61434929,12.6919596 C3.23428307,11.7266041 1.75298951,10.903062 0.205898162,10.1991213 L0.205898162,0.00565101562 L22.1621105,0.00565101562 C40.6664703,0.00565101562 53.4531718,12.8645276 53.4531718,29.7351823 L53.4531718,29.7351823 Z" id="Fill-1" fill="#581265" mask="url(#mask-2)"></path>
                </g>
                <path d="M215.686638,24.3878075 C215.738739,24.3776049 215.796049,24.362301 215.835993,24.3333936 C215.987083,24.2143632 216.148594,24.1293415 216.336155,24.0800289 C216.410833,24.064725 216.482036,24.0120116 216.544557,23.962699 C216.617497,23.8997829 216.662651,23.8181621 216.664387,23.7195369 C216.660914,23.6957308 216.653967,23.6685239 216.647021,23.6447178 C216.624444,23.5698987 216.535873,23.5341896 216.487246,23.586903 C216.369152,23.7178365 216.221535,23.8028582 216.061761,23.8793777 C215.964507,23.923589 215.877673,23.9916064 215.796049,24.0579233 C215.710952,24.1259407 215.641485,24.2075615 215.615435,24.3163893 C215.611961,24.3248915 215.615435,24.3469971 215.622381,24.3520984 C215.641485,24.3691027 215.669272,24.3929088 215.686638,24.3878075 M214.974601,25.1121925 C214.952024,25.1308973 214.929448,25.1428003 214.906871,25.1564038 C214.872137,25.1393994 214.83914,25.1172938 214.804407,25.1087916 C214.783567,25.1053907 214.75057,25.1206946 214.74015,25.1359986 C214.733203,25.1547033 214.743623,25.1870116 214.759253,25.2023155 C214.774883,25.2193198 214.804407,25.2244211 214.82872,25.2363242 C214.78704,25.2873372 214.741886,25.3366498 214.705416,25.3910637 C214.679366,25.4267728 214.717573,25.5083936 214.764463,25.5168958 C214.804407,25.5270984 214.842614,25.5356006 214.882557,25.5321997 C214.979811,25.5270984 215.070118,25.4896889 215.139585,25.4233719 C215.400087,25.2006151 215.657115,24.969356 215.865516,24.6972865 C215.88983,24.6649783 215.898513,24.6224674 215.912406,24.5884588 L215.91588,24.5493488 C215.92109,24.5170405 215.865516,24.4728292 215.830783,24.4847323 C215.782156,24.503437 215.728319,24.518741 215.686638,24.5476483 C215.561598,24.6224674 215.45045,24.7210926 215.323673,24.78911 C215.172582,24.8690304 215.103115,25.020369 214.974601,25.1121925 M213.166721,24.3742041 C212.831542,24.6054631 212.805492,24.569754 212.736025,25.0373734 C212.788125,25.0883864 212.881906,25.1121925 212.868013,25.2108177 C212.862803,25.2380246 212.869749,25.2635311 212.869749,25.2635311 C212.855856,25.5543054 212.972213,25.7787627 213.085097,26.0066208 C213.100727,26.04233 213.133724,26.0712373 213.159774,26.0967438 C213.217085,26.1528582 213.323022,26.1596599 213.385542,26.1171491 C213.58005,25.9743126 213.646044,25.7634588 213.552263,25.5543054 C213.52795,25.4947902 213.488006,25.4403763 213.456746,25.3842619 C213.415066,25.3111433 213.369912,25.2482272 213.338652,25.1751085 C213.283078,25.0441751 213.277868,24.9098408 213.382069,24.8027135 C213.468903,24.71089 213.51753,24.6054631 213.53316,24.4847323 C213.53837,24.4609262 213.54879,24.4354197 213.555736,24.4116136 C213.578313,24.3554993 213.619993,24.3214906 213.675567,24.3061867 C213.778031,24.2789797 213.887442,24.2806802 213.993379,24.3061867 C214.106263,24.3299928 214.203517,24.4609262 214.193097,24.5731548 C214.189623,24.6258683 214.172257,24.6768813 214.1601,24.7295948 C214.151416,24.7687048 214.153153,24.8095152 214.182677,24.8384226 C214.208727,24.86733 214.25909,24.8486252 214.318137,24.7874096 C214.326821,24.7772069 214.333768,24.7687048 214.342451,24.7551013 C214.429285,24.6394718 214.502225,24.659877 214.578639,24.7210926 C214.618582,24.7551013 214.658526,24.7925109 214.700206,24.8265195 C214.767937,24.8758321 214.875611,24.8316208 214.887767,24.7448987 C214.896451,24.6802822 214.906871,24.6105644 214.891241,24.5493488 C214.85477,24.4048119 214.866927,24.260275 214.906871,24.1208394 C215.009335,24.0868307 215.111799,24.0579233 215.212526,24.0188133 C215.285466,23.9916064 215.28894,23.8623734 215.221209,23.8164616 C215.176056,23.7875543 215.130902,23.7603473 215.080538,23.7382417 C214.917291,23.6668234 214.747096,23.6447178 214.568219,23.7025326 C214.389341,23.7603473 214.205253,23.8045586 214.026376,23.8657742 C213.951699,23.8912808 213.873548,23.9269899 213.817975,23.9814038 C213.710301,24.0868307 213.588733,24.1599493 213.448063,24.2194645 C213.347335,24.2568741 213.253555,24.3146889 213.166721,24.3742041 M211.245957,24.2024602 C211.225117,24.170152 211.19212,24.1463459 211.162596,24.1208394 C211.162596,24.1208394 211.153913,24.0970333 211.148703,24.0868307 C211.107023,23.9933068 211.107023,23.8997829 211.18691,23.8317656 C211.30153,23.7348408 211.383154,23.6192113 211.454358,23.4882779 C211.485618,23.4389653 211.575925,23.4168596 211.634972,23.4406657 C211.711386,23.4712735 211.780853,23.5069826 211.857267,23.5341896 C211.914577,23.5562952 211.996201,23.5086831 212.022251,23.4525687 C212.046565,23.3913531 212.022251,23.304631 211.966678,23.277424 C211.799957,23.1975036 211.634972,23.1124819 211.435255,23.1175832 C211.305004,23.1226845 211.169543,23.0784732 211.035819,23.0903763 C210.876045,23.1039797 210.756214,23.1787988 210.66938,23.3080318 C210.639857,23.355644 210.639857,23.4083575 210.678064,23.4525687 C210.69543,23.472974 210.721481,23.4882779 210.730164,23.5120839 C210.735374,23.5324891 210.733637,23.5664978 210.719744,23.5801013 C210.70585,23.5971056 210.66938,23.6124096 210.650277,23.6056078 C210.584283,23.5903039 210.525236,23.5613965 210.462716,23.5409913 C210.408879,23.5222865 210.339412,23.5494935 210.332465,23.5971056 C210.318572,23.7586469 210.261261,23.8997829 210.183111,24.0392185 C210.151851,24.064725 210.09975,24.0817294 210.092804,24.1089363 C210.071964,24.2262663 210.065017,24.3435962 210.054597,24.4609262 C210.054597,24.4609262 210.101487,24.5408466 210.136221,24.5289436 C210.183111,24.5051375 210.233474,24.4864327 210.278628,24.4609262 C210.374145,24.3929088 210.471399,24.3691027 210.584283,24.3980101 C210.730164,24.4354197 210.876045,24.4388205 211.027136,24.4303184 C211.077499,24.4252171 211.131336,24.4116136 211.1817,24.3929088 C211.26506,24.3691027 211.298057,24.2755789 211.245957,24.2024602 M241.281776,37.4573444 C241.248779,37.6120839 241.203625,37.7685239 241.212309,37.9266643 C241.219255,38.1715268 241.175838,38.4044863 241.064691,38.6238423 C241.005644,38.7445731 241.000434,38.8772069 241.019538,39.0132417 C241.052534,39.2342981 241.066428,39.4621563 241.127212,39.6815123 C241.231412,40.0590087 241.229675,40.4433068 241.158472,40.8259045 C241.130685,40.968741 241.125475,41.1132779 241.127212,41.2612156 C241.128948,41.407453 241.115055,41.548589 241.080321,41.6948263 C241.019538,41.9532923 240.951807,42.2100579 240.906654,42.4719247 C240.87192,42.6589725 240.8094,42.8290159 240.741669,43.0024602 C240.689569,43.1316932 240.620102,43.2337192 240.515901,43.3238423 C240.267557,43.5346961 240.050472,43.769356 239.911538,44.0618307 C239.878541,44.1366498 239.812547,44.1893632 239.765657,44.2539797 C239.671877,44.3832127 239.571149,44.5090449 239.489526,44.6450796 C239.383588,44.8304269 239.295018,45.0259768 239.194291,45.214725 C239.124824,45.3507598 239.0953,45.4884949 239.0953,45.6364327 C239.0953,45.7554631 239.09009,45.8778944 239.097037,45.9952243 C239.10572,46.2383864 239.055357,46.467945 238.932053,46.6839001 C238.841745,46.843741 238.768805,47.0188857 238.699338,47.19233 C238.661131,47.2807525 238.624661,47.3589725 238.544774,47.4201881 C238.477043,47.4695007 238.4371,47.5375181 238.41105,47.6140376 C238.339846,47.8299928 238.214805,48.0221418 238.155758,48.2448987 C238.136655,48.3163169 238.081081,48.3826339 238.028981,48.4421491 C237.949094,48.5356729 237.89352,48.6410999 237.870943,48.7601302 L237.87268,48.7584298 C237.83621,48.8009407 237.822316,48.8519537 237.82058,48.9046671 C237.81537,49.0747106 237.728536,49.2090449 237.633019,49.3399783 C237.494084,49.527026 237.306523,49.6630608 237.094649,49.7514834 C236.938348,49.8160999 236.768154,49.8858177 236.582329,49.824602 C236.528492,49.8075977 236.493759,49.8586107 236.505916,49.9283285 C236.521546,50.0014472 236.563226,50.0456585 236.636166,50.0626628 C236.688267,50.0779667 236.74384,50.0864689 236.782047,50.1391823 C236.809834,50.2480101 236.901878,50.3398336 236.901878,50.4860709 C236.851514,50.5863965 236.788994,50.7088278 236.73342,50.8278582 C236.641376,51.0251085 236.500706,51.1815485 236.323565,51.309081 C236.104743,51.4672214 235.905026,51.6474674 235.674048,51.7886035 C235.58895,51.8396165 235.535113,51.916136 235.514273,52.0096599 L235.50559,52.0487699 C235.45349,52.3650507 235.290242,52.5827062 234.96722,52.679631 C234.819603,52.7255427 234.779659,52.8139653 234.790079,52.9602026 C234.793553,52.9976122 234.803973,53.0384226 234.807446,53.0775326 C234.823076,53.1710564 234.817866,53.2628799 234.767502,53.3462012 C234.753609,53.3683068 234.741452,53.3938133 234.731032,53.4193198 C234.637252,53.7185962 234.348963,53.6641823 234.168349,53.8954414 C233.968631,54.1488061 234.187453,54.1011939 234.210029,54.3392547 C234.236079,54.6283285 233.607403,55.3136035 233.73418,55.4819465 C233.77586,55.5397612 233.836644,55.5295586 233.887007,55.546563 C233.932161,55.5618669 233.947791,55.6077786 233.914794,55.6332851 C233.850537,55.6859986 233.789754,55.738712 233.720287,55.7795224 C233.690763,55.7965268 233.642136,55.7982272 233.603929,55.7914255 C233.553566,55.7812229 233.503202,55.7557164 233.452838,55.738712 C233.331271,55.7523155 233.209704,55.7625181 233.089873,55.7863242 C233.025616,55.7999276 232.968306,55.8305355 232.907522,55.8543415 L232.907522,55.8611433 L232.905785,55.8577424 L232.905785,55.8543415 C232.775535,55.8101302 232.669597,55.738712 232.582763,55.6468886 C232.587974,55.5159551 232.699121,55.4530391 232.728644,55.3493126 C232.723434,55.2591896 232.685227,55.1724674 232.721698,55.0789436 C232.806795,54.8663893 232.831108,54.6402315 232.831108,54.4140738 C232.831108,54.3086469 232.838055,54.20322 232.839792,54.0977931 C232.839792,54.0603835 232.784218,54.0297757 232.752958,54.0416787 C232.740801,54.0518813 232.728644,54.0569826 232.718224,54.0671852 C232.707804,54.073987 232.697384,54.0807887 232.685227,54.0892909 C232.652231,54.1147974 232.617497,54.1284009 232.57408,54.1147974 C232.535873,54.0994935 232.508086,54.0365774 232.515033,53.9770622 C232.52719,53.8869392 232.54282,53.7934153 232.551503,53.725398 C232.51677,53.5587554 232.381309,53.4567294 232.384782,53.2764834 C232.52198,52.9942113 232.561923,52.6592258 232.63139,52.3378437 C232.697384,52.0249638 232.692174,51.7018813 232.513296,51.4111071 C232.449039,51.3039797 232.424726,51.1883502 232.459459,51.0642185 C232.487246,50.9706946 232.464669,50.8805716 232.419516,50.7938495 C232.403886,50.7598408 232.393466,50.7207308 232.377836,50.6850217 C232.381309,50.6442113 232.384782,50.6034009 232.384782,50.6034009 C232.428199,50.2480101 232.422989,49.9300289 232.356996,49.6137482 C232.318789,49.4318017 232.271898,49.2515557 232.214588,49.0747106 C232.165961,48.9233719 232.134701,48.7703329 232.127754,48.610492 C232.119071,48.3435239 232.086074,48.081657 231.95756,47.8367945 C231.93151,47.7925832 231.919353,47.7364689 231.90025,47.6871563 C231.839466,47.5222142 231.750895,47.3759768 231.648432,47.2382417 C231.592858,47.15322 231.521654,47.0988061 231.427874,47.0698987 C231.156952,46.9746744 230.884294,46.9083575 230.592532,46.9202605 C230.403235,46.9321635 230.213937,46.9372648 230.024639,46.9695731 C229.672094,47.0341896 229.324758,47.0018813 228.980897,46.894754 C228.819386,46.843741 228.680452,46.7689219 228.609248,46.609081 C228.560621,46.5104559 228.480734,46.4407381 228.385217,46.3863242 C228.277543,46.3285094 228.173342,46.2672938 228.067405,46.209479 C227.961467,46.1499638 227.85553,46.0938495 227.753066,46.0275326 C227.391838,45.7911722 227.035819,45.5531114 226.704114,45.2759407 C226.68501,45.2572359 226.667644,45.2368307 226.645067,45.2232272 C226.5756,45.1824168 226.507869,45.1297033 226.433192,45.1092981 C226.302941,45.0650868 226.186584,45.0021708 226.080647,44.9171491 C225.946923,44.815123 225.794095,44.7709117 225.625638,44.7675109 C225.583957,44.7658104 225.544014,44.7624096 225.502334,44.7607091 C225.361663,44.7556078 225.233149,44.7437048 225.193205,44.5685601 C225.181049,44.5226483 225.130685,44.4886397 225.094215,44.4461288 C225.040378,44.3866136 224.986541,44.325398 224.930967,44.2692836 C224.818083,44.1638567 224.80419,44.0431259 224.842397,43.9053907 C224.87192,43.8016643 224.904917,43.7013386 224.960491,43.6095152 C225.003908,43.5414978 225.056008,43.4785818 225.083795,43.4054631 C225.102898,43.3578509 225.102898,43.3000362 225.101161,43.2507236 C225.094215,43.1657019 225.023011,43.1418958 224.925757,43.1759045 L224.927494,43.1844067 L224.922284,43.1793054 L224.925757,43.1759045 C224.89797,43.1827062 224.873657,43.1912084 224.84587,43.1946093 C224.694779,43.2116136 224.581895,43.1657019 224.514165,43.0228654 C224.456854,42.903835 224.394334,42.7882055 224.337024,42.6793777 C224.347444,42.5314399 224.347444,42.3971056 224.370021,42.2712735 C224.401281,42.1216353 224.397807,41.9821997 224.340497,41.8393632 C224.321394,41.7866498 224.345707,41.7322359 224.378704,41.6880246 C224.420384,41.6404124 224.467275,41.5910999 224.515901,41.5434877 C224.620102,41.446563 224.675676,41.3360347 224.653099,41.1897974 C224.632259,41.0571635 224.639205,40.9262301 224.632259,40.7901954 C224.649626,40.7561867 224.665256,40.7153763 224.691306,40.6864689 C224.875393,40.5181259 224.896234,40.2919682 224.917074,40.0675109 C224.920547,39.9977931 224.904917,39.9280753 224.852817,39.883864 C224.757299,39.8005427 224.701726,39.7002171 224.653099,39.5879884 C224.576685,39.4196454 224.479431,39.2598046 224.406491,39.0897612 C224.310974,38.8755065 224.166829,38.7020622 223.920221,38.6323444 C223.868121,38.6204414 223.819494,38.5983357 223.769131,38.5762301 C223.668403,38.5337192 223.58157,38.4657019 223.546836,38.3568741 C223.503419,38.2021346 223.383588,38.1596237 223.237708,38.152822 C223.154347,38.152822 223.07446,38.1494211 222.992836,38.1562229 C222.876479,38.1630246 222.787908,38.2174385 222.737545,38.3245658 C222.678498,38.4435962 222.622924,38.5643271 222.563877,38.6867583 C222.42668,38.9741317 223.062303,39.0081404 222.41105,39.1441751 C222.117551,39.2053907 221.801476,39.1067656 221.502768,39.1509768 C221.31347,39.1781838 220.141214,38.9962373 220.13253,38.9469247 C220.139477,38.9843343 220.15337,39.0234443 220.087377,39.0489508 C220.047433,39.0421491 219.993596,39.0353473 219.939759,39.0268452 C219.819928,39.0030391 219.748725,38.9316208 219.713991,38.8193922 C219.708781,38.7938857 219.701834,38.7700796 219.693151,38.7445731 C219.663627,38.6476483 219.684468,38.5864327 219.766091,38.5371201 C219.821665,38.5048119 219.884185,38.4759045 219.939759,38.4418958 C219.971019,38.4197902 219.971019,38.3568741 219.943232,38.333068 C219.828612,38.231042 219.689678,38.1817294 219.538587,38.1681259 C219.486486,38.1630246 219.427439,38.1630246 219.387496,38.2055355 C219.333659,38.2735528 219.375339,38.3296671 219.413546,38.384081 C219.429176,38.4078871 219.444806,38.4282923 219.456963,38.4520984 C219.4587,38.4606006 219.456963,38.4810058 219.450016,38.489508 C219.444806,38.4963097 219.427439,38.5065123 219.427439,38.5065123 C219.196462,38.4810058 219.01411,38.3534732 218.803973,38.2990593 C218.658092,38.254848 218.531314,38.1868307 218.425377,38.0780029 C218.357647,38.0065847 218.281233,38.0031838 218.201346,38.0592981 C218.102355,38.1256151 218.005101,38.2004342 217.880061,38.2140376 C217.650819,38.2463459 217.423315,38.2837554 217.194074,38.3024602 C217.030826,38.3160637 216.871052,38.3262663 216.711278,38.3653763 C216.494193,38.4163893 216.280582,38.4010854 216.066971,38.3296671 C215.9784,38.2990593 215.891566,38.2650507 215.802996,38.231042 C215.636275,38.1749276 215.469554,38.1171129 215.302833,38.0592981 C215.120482,37.9929812 214.931184,37.984479 214.741886,37.9980825 C214.625529,38.0031838 214.535222,38.0473951 214.467492,38.1443198 C214.398025,38.242945 214.326821,38.3415702 214.245197,38.4282923 C214.12884,38.5490232 213.984696,38.6153401 213.811028,38.6255427 C213.583523,38.6391462 213.354282,38.669754 213.121567,38.6391462 C212.987843,38.6238423 212.850646,38.630644 212.716922,38.630644 C212.499837,38.630644 212.282753,38.630644 212.063931,38.6323444 C211.900684,38.6323444 211.739173,38.6255427 211.582872,38.5711288 C211.452621,38.5235166 211.318897,38.5218162 211.1817,38.540521 C211.115706,38.552424 211.046239,38.552424 210.980245,38.552424 C210.827418,38.5575253 210.6798,38.5473227 210.54434,38.4691027 C210.448822,38.4163893 210.342885,38.3874819 210.233474,38.3908828 C210.03202,38.3908828 209.867036,38.3024602 209.714208,38.1868307 C209.623901,38.1188133 209.557907,38.0388929 209.573537,37.9164616 C209.592641,37.7957308 209.550961,37.6818017 209.528384,37.5644718 C209.5197,37.5304631 209.505807,37.4879522 209.481494,37.455644 C209.290459,37.2158828 209.146315,36.9353111 208.833713,36.8111795 C208.760773,36.7822721 208.699989,36.7210564 208.632259,36.6785456 C208.566265,36.6326339 208.503745,36.57822 208.430804,36.5408104 C208.251927,36.4472865 208.067839,36.3639653 207.913275,36.2313314 C207.873331,36.1973227 207.816021,36.1803184 207.767394,36.1599132 C207.692717,36.1310058 207.614566,36.1089001 207.538153,36.0816932 C207.453055,36.0544863 207.395745,36.0034732 207.390535,35.9133502 C207.381852,35.8096237 207.340171,35.7331042 207.241181,35.6922938 C207.05362,35.6123734 206.879952,35.5103473 206.737545,35.3624096 C206.702811,35.3267004 206.647238,35.3011939 206.598611,35.2875904 C206.46315,35.24678 206.360686,35.1617583 206.258222,35.0733357 C206.023771,34.8675832 205.83621,34.6244211 205.697276,34.3472504 C205.537501,34.0258683 205.459351,34.0343705 205.155433,34.0496744 C205.129382,34.0496744 205.103332,34.0547757 205.075545,34.0581766 C205.044285,34.059877 204.999132,34.1091896 205.000868,34.1414978 C205.000868,34.1976122 204.999132,34.252026 205.013025,34.3013386 C205.047759,34.4135673 205.098122,34.5223951 205.132856,34.6363242 C205.165853,34.7638567 205.24053,34.8437771 205.348204,34.9151954 C205.573972,35.0631331 205.773689,35.2433792 205.926517,35.466136 C205.997721,35.5664616 206.075871,35.6514834 206.171388,35.7280029 C206.402366,35.9150507 206.610767,36.1191027 206.768805,36.3741679 C206.873006,36.5442113 206.99631,36.7023517 207.076197,36.8791968 C207.124824,36.899602 207.163031,36.926809 207.199501,36.9234081 C207.387062,36.9200072 207.501682,37.028835 207.598936,37.1614689 C207.61283,37.1835745 207.626723,37.2107815 207.621513,37.236288 C207.616303,37.2719971 207.600673,37.3094067 207.58157,37.3417149 C207.560729,37.3689219 207.496472,37.3689219 207.470422,37.3451158 C207.291545,37.1767728 207.07967,37.0628437 206.843482,36.9880246 C206.829589,36.9829233 206.819169,36.9761216 206.805275,36.9727207 C206.648974,36.9047033 206.523934,36.8162808 206.508303,36.6275326 C206.503093,36.5629161 206.47878,36.4982996 206.445783,36.4387844 C206.414523,36.3843705 206.372843,36.319754 206.317269,36.2908466 C206.166178,36.2092258 206.020297,36.1054993 205.831,36.1089001 C205.707696,36.1089001 205.593075,36.0578871 205.490611,35.9915702 C205.400304,35.932055 205.395094,35.8980463 205.483664,35.8300289 C205.520135,35.8045224 205.547921,35.7756151 205.547921,35.7756151 C205.554868,35.5970695 205.520135,35.4746382 205.424617,35.3675109 C205.31347,35.24678 205.184956,35.1549566 205.032129,35.0920405 C204.941821,35.0529305 204.879301,34.9832127 204.835884,34.8947902 C204.782047,34.7876628 204.73863,34.6737337 204.669163,34.576809 C204.577119,34.4458755 204.495495,34.3081404 204.420818,34.1653039 C204.340931,34.0139653 204.257571,33.8609262 204.167264,33.7129884 C204.13253,33.6568741 204.083903,33.6007598 204.02833,33.570152 C203.839032,33.4715268 203.630631,33.4052098 203.423966,33.3473951 C203.276349,33.362699 203.201672,33.2861795 203.147835,33.1620478 C203.111364,33.077026 203.061001,32.9954052 203.000217,32.9256874 C202.824813,32.7233357 202.753609,32.485275 202.698035,32.238712 C202.684142,32.1740955 202.678932,32.1077786 202.670249,32.0414616 C202.625095,32.0040521 202.585151,31.968343 202.548681,31.9326339 C202.451427,31.8357091 202.378487,31.7183792 202.37154,31.580644 C202.362857,31.4037988 202.29339,31.2456585 202.232606,31.0501085 C202.312493,30.805246 202.284706,30.5246744 202.284706,30.2441027 C202.284706,30.0995658 202.281233,29.9516281 202.321177,29.8087916 C202.430587,29.4261939 202.470531,29.0282923 202.555628,28.6388929 C202.592098,28.4790521 202.604255,28.3226122 202.569521,28.1661722 C202.548681,28.0743488 202.548681,27.9808249 202.550418,27.8890014 C202.553891,27.8192836 202.597308,27.7614689 202.666775,27.7410637 C202.746662,27.7155572 202.826549,27.7019537 202.902963,27.6747467 C202.955063,27.6526411 202.98285,27.6067294 202.995007,27.5489146 C203.021057,27.4264834 202.99327,27.3057525 202.906437,27.2156295 C202.729296,27.0353835 202.611202,26.7990232 202.38196,26.6663893 C202.37154,26.6595876 202.36112,26.6493849 202.36112,26.6493849 C202.338543,26.5864689 202.307283,26.5371563 202.310757,26.4861433 C202.31423,26.4079233 202.34549,26.3331042 202.36633,26.2463821 C202.30381,26.1409551 202.220449,26.0372287 202.236079,25.8926918 C202.241289,25.8518813 202.185716,25.8059696 202.159666,25.7617583 C202.168349,25.7192475 202.173559,25.6750362 202.185716,25.6376266 C202.229133,25.4675832 202.241289,25.2992402 202.197873,25.1257959 C202.171822,25.0220695 202.178769,24.9149421 202.185716,24.8095152 C202.196136,24.6496744 202.196136,24.4898336 202.194399,24.3299928 C202.190926,24.1973589 202.123195,24.1582489 202.010312,24.1854559 C201.985998,24.193958 201.958211,24.1854559 201.918268,24.182055 C201.904374,24.1361433 201.885271,24.0868307 201.880061,24.0341172 C201.864431,23.9201881 201.808857,23.8351664 201.69771,23.7909551 C200.912732,23.4627713 202.618148,21.781042 202.861283,21.5055716 C203.100944,21.2335022 203.338869,20.9597323 203.595897,20.7029667 C203.672311,20.6281476 203.804298,20.4445007 203.905026,20.410492 C204.05438,20.3645803 204.221101,20.4955137 204.377401,20.4802098 C204.568436,20.4615051 204.79073,20.3169682 204.936611,20.2098408 C204.980028,20.1809334 205.025182,20.1503256 205.073809,20.1265195 C205.181483,20.0687048 205.289157,20.01089 205.415934,20.0244935 C205.502768,20.0295948 205.582655,19.998987 205.648649,19.9564761 C205.813633,19.8476483 205.990774,19.8068379 206.187018,19.818741 C206.279062,19.8221418 206.374579,19.8102388 206.471833,19.8068379 C206.496147,19.8068379 206.516987,19.8221418 206.544774,19.8374457 C206.537827,19.8714544 206.529144,19.9105644 206.52046,19.947974 C206.51525,19.9921852 206.55172,20.0363965 206.584717,20.0244935 C206.638554,20.01089 206.692391,20.0057887 206.741018,19.9836831 C206.864322,19.9309696 206.98589,19.8680535 207.109194,19.8136397 C207.173451,19.7847323 207.237708,19.7949349 207.300228,19.8391462 C207.321068,19.8561505 207.341908,19.8765557 207.366222,19.881657 C207.390535,19.8867583 207.428742,19.881657 207.437425,19.8629522 C207.480842,19.7983357 207.510366,19.7235166 207.557256,19.6589001 C207.689243,19.4837554 207.835124,19.3324168 208.086942,19.3392185 C208.26582,19.3443198 208.430804,19.2865051 208.590579,19.2065847 C208.673939,19.1623734 208.762509,19.1317656 208.85108,19.0977569 C209.137632,18.9821274 209.092478,18.965123 209.038641,18.7440666 C209.035168,18.733864 209.035168,18.7202605 209.035168,18.7202605 C209.028221,18.6216353 209.141105,18.5417149 209.238359,18.5672214 C209.257462,18.5757236 209.281776,18.6080318 209.278302,18.6233357 C209.274829,18.6760492 209.253989,18.7287627 209.248779,18.7797757 C209.243569,18.8341896 209.266146,18.8835022 209.302616,18.926013 C209.330403,18.9515195 209.391186,18.9549204 209.412026,18.9311143 C209.512754,18.8052822 209.611744,18.6777496 209.705525,18.5502171 C209.743732,18.4992041 209.771519,18.436288 209.797569,18.3750724 C209.806252,18.3563676 209.802779,18.3206585 209.790622,18.3019537 C209.774992,18.2866498 209.741995,18.2713459 209.719418,18.2747467 C209.655161,18.2866498 209.589167,18.3087554 209.523174,18.3240593 C209.443287,18.3427641 209.370346,18.2509407 209.39466,18.1710203 C209.406816,18.1336107 209.4155,18.0910999 209.439813,18.060492 C209.537067,17.9431621 209.589167,17.81733 209.577011,17.66089 C209.568327,17.5469609 209.648214,17.4636397 209.747205,17.4092258 C209.830566,17.3599132 209.924346,17.3446093 210.019863,17.3412084 L210.035493,17.3310058 L210.019863,17.3446093 C209.999023,17.4398336 209.927819,17.4993488 209.853142,17.5571635 C209.710735,17.6744935 209.708998,17.7748191 209.811462,17.8955499 C209.844459,17.9363603 209.879192,17.9754703 209.901769,18.0230825 C209.943449,18.1166064 210.009443,18.1676194 210.11017,18.1863242 C210.184847,18.2033285 210.214371,18.3172576 210.320308,18.2764472 C210.349832,18.2390376 210.377619,18.1931259 210.412352,18.1557164 C210.454032,18.1098046 210.518289,18.1098046 210.55476,18.1506151 C210.60686,18.2050289 210.631173,18.2900507 210.71106,18.3257598 C210.751004,18.3444645 210.834364,18.3444645 210.858678,18.3138567 C210.955932,18.1863242 211.046239,18.0570912 211.091393,17.9023517 C211.103549,17.8700434 211.096603,17.8241317 211.082709,17.7867221 C211.049712,17.6931983 211.110496,17.6421852 211.16086,17.5860709 C211.278954,17.5860709 211.400521,17.5877713 211.551612,17.5911722 C211.529035,17.7221056 211.605449,17.7850217 211.700966,17.8445369 C211.76696,17.8836469 211.76696,17.9567656 211.720069,18.0162808 C211.593292,18.177822 211.417888,18.2764472 211.230327,18.3563676 C211.169543,18.3818741 211.098339,18.3920767 211.056659,18.4532923 C211.006295,18.6012301 210.950722,18.7508683 210.907305,18.9022069 C210.862151,19.0501447 210.773581,19.1572721 210.636383,19.2371925 C210.533919,19.2984081 210.440139,19.3766281 210.344622,19.4497467 C210.316835,19.4752533 210.294258,19.5092619 210.285575,19.5228654 C210.278628,19.5959841 210.285575,19.6520984 210.262998,19.6946093 C210.252578,19.7269175 210.207424,19.7473227 210.170954,19.7643271 C210.11017,19.7898336 210.045913,19.803437 209.97992,19.8255427 C209.903506,20.0176918 209.827092,20.1979378 209.754152,20.3832851 C209.724628,20.4564038 209.693368,20.5312229 209.663845,20.606042 C209.608271,20.7488784 209.601324,20.8900145 209.627374,21.0345514 C209.637794,21.1178726 209.700315,21.213097 209.823619,21.1824891 C209.886139,21.1654848 209.95387,21.1399783 210.023337,21.1756874 C210.143167,21.2590087 210.177901,21.4256512 210.323782,21.4936686 C210.358515,21.4800651 210.401932,21.4732634 210.434929,21.4545586 C210.768371,21.2828148 211.119179,21.2096961 211.492565,21.2879161 C211.575925,21.3066208 211.654076,21.3015195 211.7357,21.2913169 C211.909367,21.2692113 212.089982,21.2692113 212.258439,21.2335022 C212.428633,21.1977931 212.590144,21.1212735 212.756865,21.0685601 C212.923586,21.0124457 212.97395,21.0481548 213.055574,21.1841896 C213.119831,21.2862156 213.199718,21.3797395 213.257028,21.483466 C213.317812,21.6041968 213.418539,21.6586107 213.53837,21.690919 C213.66862,21.7283285 213.811028,21.7402315 213.929122,21.7980463 C214.094106,21.8779667 214.208727,21.8575615 214.311191,21.7096237 C214.340714,21.6688133 214.392815,21.6433068 214.422338,21.6229016 C214.443178,21.4409551 214.417128,21.3066208 214.295561,21.1926918 C214.18094,21.083864 214.068056,20.9648336 213.958645,20.8509045 C213.887442,20.7777858 213.883968,20.7284732 213.969065,20.6468524 C214.055899,20.5584298 214.127103,20.4683068 214.18094,20.3577786 C214.241724,20.2234443 214.299034,20.0925109 214.349398,19.9513748 C214.173993,19.7456223 213.982959,19.5891823 213.703354,19.5704776 C213.66341,19.5687771 213.625204,19.5585745 213.583523,19.5483719 C213.53316,19.5364689 213.496689,19.4888567 213.496689,19.431042 L213.496689,19.403835 C213.53316,19.2337916 213.488006,19.1079595 213.375122,18.9906295 C213.283078,18.8954052 213.203191,18.7899783 213.118094,18.6845514 C213.107674,18.6726483 213.116357,18.6267366 213.130251,18.6131331 C213.171931,18.5808249 213.218821,18.5502171 213.267448,18.5315123 C213.470639,18.4634949 213.677304,18.397178 213.861392,18.2815485 C213.916965,18.2509407 213.989906,18.2390376 214.055899,18.2271346 C214.137523,18.2203329 214.219147,18.2152315 214.299034,18.2271346 C214.516119,18.2713459 214.72973,18.2475398 214.943341,18.2084298 C214.967654,18.2033285 214.995441,18.2152315 215.021491,18.2203329 C215.179529,18.3206585 215.302833,18.4634949 215.474764,18.5587192 C215.605015,18.5077062 215.735265,18.487301 215.872463,18.5077062 C215.990557,18.526411 216.084337,18.4651954 216.153804,18.3750724 C216.237165,18.2662446 216.292739,18.1506151 216.256268,18.0060781 C216.245848,17.9686686 216.245848,17.9261577 216.240638,17.8887482 C216.237165,17.8530391 216.284055,17.8054269 216.320525,17.8122287 C216.440356,17.8275326 216.560187,17.8394356 216.681754,17.8598408 C216.851948,17.8938495 217.025616,17.9397612 217.197547,17.9686686 C217.400738,18.0060781 217.591772,18.0587916 217.742863,18.2118307 C217.80191,18.2713459 217.885271,18.2883502 217.965158,18.2917511 C218.128406,18.295152 218.289916,18.2611433 218.451427,18.3172576 C218.494844,18.3325615 218.557365,18.3087554 218.609465,18.295152 C218.765766,18.2628437 218.923803,18.2220333 219.081841,18.1863242 C219.120048,18.177822 219.154781,18.2152315 219.154781,18.2611433 C219.153045,18.2985528 219.147835,18.3376628 219.142625,18.3750724 C219.278085,18.2883502 219.418756,18.2152315 219.59416,18.2475398 C219.658417,18.2611433 219.729621,18.2356368 219.797352,18.2305355 C219.892869,18.2220333 219.986649,18.2441389 220.068273,18.295152 C220.136003,18.3427641 220.200261,18.3869754 220.264518,18.436288 C220.327038,18.4821997 220.337458,18.5927279 220.288831,18.6539436 C220.247151,18.706657 220.207207,18.7593705 220.15337,18.8018813 C220.047433,18.8903039 219.969283,18.9957308 219.943232,19.1317656 C219.906762,19.3273155 219.785195,19.4650507 219.609791,19.560275 C219.528167,19.6044863 219.44828,19.6554993 219.361446,19.6946093 C219.153045,19.7898336 218.939433,19.8782562 218.731032,19.9751809 C218.597308,20.0363965 218.465321,20.1044139 218.336807,20.1826339 C218.220449,20.2523517 218.124932,20.3509768 218.091935,20.488712 C218.064148,20.6077424 218.010312,20.7114689 217.930424,20.8049928 C217.82275,20.9308249 217.772387,21.0770622 217.756757,21.2420043 C217.742863,21.3899421 217.71334,21.5310781 217.6925,21.6773155 C217.68729,21.6994211 217.694236,21.7283285 217.699446,21.7521346 C217.699446,21.7521346 217.71855,21.7725398 217.72897,21.7725398 C217.73939,21.7759407 217.756757,21.7708394 217.763703,21.7589363 C217.81754,21.6943198 217.821014,21.6143994 217.841854,21.5378799 C217.864431,21.4477569 217.881797,21.3508321 217.923478,21.2692113 C218.058938,21.0073444 218.248236,20.7828871 218.486161,20.5975398 C218.602518,20.5074168 218.736242,20.4410999 218.885596,20.4087916 C218.953327,20.3917873 219.019321,20.4087916 219.067947,20.4649059 C219.116574,20.5176194 219.100944,20.6247467 219.041897,20.6842619 C219.01411,20.7114689 218.979377,20.7335745 218.94638,20.7556802 C218.913383,20.7777858 218.876913,20.798191 218.84739,20.8236975 C218.823076,20.8424023 218.828286,20.8696093 218.850863,20.8917149 C218.859546,20.8968162 218.871703,20.9053184 218.885596,20.9104197 C218.99848,20.9342258 219.087051,20.837301 219.196462,20.8458032 C219.222512,20.8611071 219.250298,20.8679088 219.267665,20.8866136 C219.429176,21.0651592 219.630631,21.1586831 219.873765,21.1654848 C220.12732,21.1705861 220.356561,21.1042692 220.559753,20.9529305 C220.643113,20.8951158 220.679583,20.8168958 220.66569,20.7114689 C220.658743,20.6349493 220.657006,20.5567294 220.653533,20.476809 C220.651796,20.4683068 220.667426,20.4547033 220.679583,20.4513025 C220.69174,20.4462012 220.710843,20.4445007 220.71779,20.449602 C220.745577,20.476809 220.788994,20.5023155 220.794204,20.5346237 C220.813307,20.6400507 220.820254,20.7488784 220.825464,20.8509045 C220.834147,20.9495297 220.806361,21.0396527 220.745577,21.1093705 C220.672636,21.2062952 220.589276,21.2981187 220.502442,21.3797395 C220.426028,21.4528582 220.337458,21.5174747 220.271464,21.5701881 C220.255834,21.6041968 220.247151,21.6143994 220.243677,21.6280029 C220.224574,21.6875181 220.210681,21.7521346 220.193314,21.8184515 C220.177684,21.8694645 220.162054,21.9170767 220.14295,21.9697902 C220.113427,22.0446093 220.02312,22.0769175 219.938022,22.0446093 C219.858135,22.0106006 219.809508,21.9391823 219.807772,21.8575615 C219.802562,21.7453329 219.845979,21.651809 219.925866,21.573589 C219.993596,21.5123734 220.068273,21.4528582 220.13774,21.3899421 C220.144687,21.3814399 220.146424,21.3610347 220.146424,21.3610347 C220.139477,21.3406295 220.125583,21.3253256 220.125583,21.3253256 C220.009226,21.3321274 219.905026,21.3406295 219.790405,21.3491317 C219.670574,21.5055716 219.543797,21.6603111 219.371866,21.7708394 C219.288505,21.8252533 219.245088,21.9085745 219.215565,22.000398 C219.187778,22.0922214 219.126994,22.1653401 219.041897,22.2112518 C218.91512,22.2758683 218.833496,22.3761939 218.770976,22.5003256 C218.743189,22.5581404 218.694562,22.6091534 218.656355,22.6635673 C218.600782,22.7400868 218.576468,22.8302098 218.578205,22.9271346 C218.581678,23.1175832 218.628568,23.2927279 218.791816,23.4219609 C218.854336,23.4712735 218.849126,23.5426918 218.802236,23.5971056 C218.708455,23.7127352 218.600782,23.8113603 218.472267,23.8929812 C218.348963,23.9695007 218.230869,24.064725 218.163139,24.2024602 L218.149246,24.2143632 L218.164876,24.2024602 L218.32465,24.2024602 C218.237816,24.2806802 218.149246,24.3589001 218.062412,24.4388205 C218.090199,24.518741 218.124932,24.5901592 218.142299,24.6649783 C218.173559,24.8316208 218.152719,24.981259 217.982525,25.0747829 C217.944318,25.0934877 217.920004,25.1240955 217.937371,25.188712 C217.982525,25.2295224 218.050255,25.278835 218.095409,25.3417511 C218.124932,25.3774602 218.130142,25.4386758 218.130142,25.4386758 C218.138826,25.5356006 218.074569,25.588314 218.025942,25.5832127 C217.942581,25.5781114 217.867904,25.5509045 217.805384,25.498191 C217.753283,25.4573806 217.71334,25.4029667 217.66645,25.3587554 C217.629979,25.3213459 217.579616,25.3094428 217.560512,25.3315485 C217.532725,25.3672576 217.530989,25.4097685 217.550092,25.4403763 C217.603929,25.5475036 217.598719,25.6682344 217.629979,25.7736614 C217.763703,25.8127713 217.854011,25.8807887 217.876587,26.0168234 C217.895691,26.1239508 217.970368,26.1647612 218.078042,26.1647612 C218.173559,26.1681621 218.241289,26.2514834 218.216976,26.3620116 C218.206556,26.4164255 218.183979,26.4623372 218.166612,26.5133502 C218.230869,26.5082489 218.2986,26.4997467 218.362857,26.5031476 C218.385434,26.5031476 218.41843,26.5184515 218.425377,26.5371563 C218.432324,26.5541606 218.41843,26.5864689 218.406274,26.6034732 C218.390644,26.6255789 218.37154,26.6459841 218.352437,26.6595876 C218.265603,26.7378075 218.284706,26.8245297 218.326387,26.9095514 C218.30902,26.9095514 218.30902,26.9571635 218.326387,26.9928726 C218.211766,27.1374096 218.088462,27.280246 218.006838,27.4519899 C217.972105,27.5200072 217.918268,27.5829233 217.864431,27.6424385 C217.77586,27.746165 217.711603,27.8617945 217.685553,27.9961288 C217.643873,28.1814761 217.560512,28.3430174 217.421578,28.4790521 C217.310431,28.5895803 217.270487,28.7290159 217.270487,28.8786541 C217.270487,28.9296671 217.270487,28.9857815 217.267014,29.0367945 C217.258331,29.2884588 217.343428,29.5061143 217.530989,29.681259 C217.881797,30.0145441 218.206556,30.3733357 218.585151,30.6726122 C218.637252,30.715123 218.689352,30.766136 218.720612,30.8205499 C218.814393,30.9837916 218.876913,31.1572359 218.880386,31.3493849 C218.882123,31.5466353 218.751872,31.5993488 218.621622,31.541534 C218.560838,31.5126266 218.500054,31.4786179 218.435797,31.463314 C218.300336,31.4293054 218.185716,31.361288 218.074569,31.2898698 C217.970368,31.2252533 217.859221,31.1725398 217.753283,31.1113242 C217.694236,31.0790159 217.649083,31.0297033 217.619559,30.9684877 C217.588299,30.9089725 217.570932,30.8358538 217.524042,30.7967438 C217.418105,30.7066208 217.353848,30.5926918 217.286117,30.4770622 C217.254857,30.4158466 217.20102,30.3750362 217.135027,30.3512301 C217.008249,30.3036179 216.879735,30.2611071 216.752958,30.2151954 C216.728644,30.2083936 216.700857,30.1998915 216.674807,30.1964906 C216.54803,30.1709841 216.431673,30.1845876 216.337892,30.2832127 C216.301422,30.3206223 216.266688,30.366534 216.228481,30.4005427 C216.178118,30.4464544 216.117334,30.4770622 216.04613,30.4651592 C216.018344,30.4651592 215.990557,30.4600579 215.964507,30.4549566 C215.608488,30.366534 215.29415,30.4345514 215.033648,30.6879161 C214.969391,30.6811143 214.917291,30.6726122 214.861717,30.66411 C214.583849,30.8494573 214.325084,31.0671129 213.996852,31.1691389 C213.977749,31.1759407 213.962119,31.204848 213.949962,31.2286541 C213.937805,31.2541606 213.984696,31.283068 214.038533,31.2864689 C214.104526,31.2864689 214.17052,31.2864689 214.23825,31.2932706 C214.26951,31.2949711 214.297297,31.3697902 214.26951,31.3918958 C214.24346,31.4174023 214.208727,31.4378075 214.173993,31.4565123 C214.198307,31.5313314 214.18094,31.5840449 214.10279,31.6180535 C213.977749,31.6724674 213.845761,31.6996744 213.708564,31.6741679 C213.62694,31.6656657 213.54879,31.6435601 213.467166,31.6724674 C213.248345,31.8289074 213.243135,31.8323082 213.02605,31.8323082 C212.95832,31.8323082 212.892326,31.8102026 212.784652,31.8714182 C212.741235,31.9122287 212.670031,31.9938495 212.588408,32.0618669 C212.506784,32.1332851 212.41995,32.1910999 212.334853,32.2557164 C212.32096,32.2948263 212.305329,32.3339363 212.294909,32.3696454 C212.246282,32.5583936 212.147292,32.7148336 211.985781,32.8270622 C211.84511,32.9222865 211.76696,33.0583213 211.694019,33.2011577 C211.647129,33.3014834 211.628026,33.3984081 211.619342,33.5089363 C211.607185,33.7197902 211.664496,33.9000362 211.812113,34.0547757 C211.841637,34.0836831 211.864214,34.1159913 211.890264,34.1465991 C211.956257,34.240123 211.982308,34.3438495 211.926734,34.4492764 C211.85032,34.5904124 211.872897,34.729848 211.914577,34.8726845 C211.926734,34.9236975 211.945837,34.9747106 211.964941,35.0223227 C212.070878,35.2841896 212.171605,35.5426556 212.225442,35.8181259 C212.235862,35.8708394 212.253229,35.9218524 212.284489,35.9694645 C212.463367,36.2007236 212.650928,36.4285818 212.91143,36.57822 C213.06773,36.6700434 213.211875,36.7618669 213.335179,36.8893994 C213.448063,37.0067294 213.586997,37.0900507 213.734614,37.1529667 C213.859655,37.1427641 213.979486,37.1342619 214.101053,37.1240593 C214.22262,37.1155572 214.340714,37.1835745 214.491805,37.1376628 C214.667209,36.9727207 214.917291,36.8553907 215.111799,36.6717438 C215.172582,36.6156295 215.243786,36.57822 215.327146,36.5697178 C215.365353,36.5629161 215.40877,36.5578148 215.448714,36.5544139 C215.622381,36.5272069 215.651905,36.4421852 215.669272,36.3163531 C215.681428,36.2364327 215.700532,36.1582127 215.723109,36.0850941 C215.789102,35.9014472 215.785629,35.7212012 215.726582,35.5375543 C215.705742,35.4746382 215.681428,35.4134226 215.665798,35.3488061 C215.644958,35.2518813 215.667535,35.1617583 215.730055,35.0886397 C215.773472,35.0359262 215.823836,34.9900145 215.875936,34.9492041 C216.002714,34.847178 216.129491,34.7485528 216.261478,34.6550289 C216.315315,34.615919 216.370889,34.5734081 216.431673,34.5530029 C216.5845,34.4917873 216.735591,34.4441751 216.895365,34.3999638 C216.923152,34.3914616 216.971779,34.4220695 217.001303,34.4441751 C217.058613,34.486686 217.077716,34.5530029 217.072506,34.6210203 C217.07077,34.6737337 217.062086,34.729848 217.041246,34.7757598 C216.976989,34.9458032 216.994356,35.1141462 217.056876,35.2807887 C217.095083,35.3811143 217.124607,35.4814399 217.155867,35.5817656 C217.16455,35.6208755 217.16455,35.6650868 217.16455,35.6650868 C217.155867,35.7229016 217.129817,35.7416064 217.110713,35.7586107 C217.10203,35.7654124 217.0864,35.7603111 217.072506,35.7603111 C216.978726,35.7756151 216.935309,35.8249276 216.966569,35.881042 C217.079453,36.0663893 217.131553,36.2755427 217.213177,36.4693922 C217.260067,36.5816208 217.275697,36.6989508 217.258331,36.8196816 C217.251384,36.8842981 217.235754,36.9506151 217.228807,37.016932 C217.220124,37.0849493 217.291327,37.1512663 217.357321,37.1342619 C217.437208,37.1155572 217.522305,37.1019537 217.586562,37.0594428 C217.737653,36.9676194 217.900901,36.9064038 218.064148,36.8417873 C218.185716,36.7890738 218.31423,36.731259 218.41843,36.6462373 C218.616412,36.4965991 218.845653,36.4268813 219.087051,36.3741679 C219.180831,36.3520622 219.271139,36.3571635 219.361446,36.4030753 C219.436123,36.4421852 219.51601,36.4421852 219.597634,36.4268813 C219.663627,36.4149783 219.731358,36.397974 219.793878,36.448987 C219.896342,36.5935239 219.958862,36.7516643 219.964073,36.9285094 C219.965809,36.9812229 219.976229,37.0390376 219.998806,37.0849493 C220.130793,37.3757236 220.156844,37.7039074 220.332248,37.9793777 C220.358298,38.152822 220.481602,38.254848 220.608379,38.3568741 C220.740367,38.4589001 220.884511,38.5286179 221.040812,38.5745297 C221.23532,38.630644 221.429827,38.6833575 221.608705,38.77178 C221.697276,38.7564761 221.775426,38.7377713 221.855313,38.7241679 C222.011614,38.7037627 222.133181,38.630644 222.235645,38.5167149 C222.362423,38.3772793 222.508303,38.2565485 222.607294,38.0933068 C222.655921,38.0099855 222.739281,37.9606729 222.833062,37.9351664 C222.911212,37.9147612 222.992836,37.8960564 223.06925,37.8756512 C223.218604,37.8382417 223.362748,37.8348408 223.510366,37.8739508 C223.708347,37.9198625 223.906328,37.9691751 224.086942,38.0695007 C224.123413,38.0882055 224.175513,38.0456946 224.161619,38.0014834 C224.102572,37.8280391 224.147726,37.6596961 224.201563,37.494754 C224.23977,37.3842258 224.29187,37.275398 224.33876,37.1614689 C224.304027,37.0339363 224.267557,36.9047033 224.23977,36.7737699 C224.206773,36.6360347 224.293607,36.488097 224.444698,36.4285818 C224.495061,36.409877 224.548898,36.4030753 224.581895,36.3520622 C224.606209,36.2789436 224.632259,36.2041245 224.665256,36.112301 C224.9136,36.0374819 225.040378,35.8317294 225.174102,35.6293777 C225.234885,35.5409551 225.274829,35.4457308 225.302616,35.3403039 C225.325193,35.24678 225.387713,35.1753618 225.474547,35.1294501 C225.505807,35.1141462 225.563117,35.1158466 225.587431,35.144754 C225.603061,35.1617583 225.625638,35.1906657 225.623901,35.2093705 C225.620428,35.2620839 225.616954,35.3215991 225.590904,35.3624096 C225.486704,35.5103473 225.505807,35.634479 225.656898,35.7365051 C225.667318,35.7450072 225.676001,35.7535094 225.686421,35.763712 C225.771519,35.8402315 225.811462,35.9337554 225.795832,36.0493849 C225.790622,36.1020984 225.783675,36.1548119 225.781939,36.2075253 C225.780202,36.2653401 225.802779,36.3163531 225.844459,36.3486614 C225.922609,36.4030753 226.00076,36.4523878 226.08412,36.5 C226.134484,36.5306078 226.228264,36.4965991 226.259525,36.4387844 C226.330728,36.3248553 226.315098,36.1582127 226.221318,36.0714906 C226.151851,36.0085745 226.0737,35.9524602 226.00597,35.8912446 C225.919136,35.814725 225.898296,35.685492 225.966026,35.6021708 C226.0737,35.466136 226.184847,35.3335022 226.302941,35.2025687 C226.386302,35.1141462 226.490503,35.0512301 226.60686,35.0070188 C226.794421,34.9407019 226.980245,34.9492041 227.148703,35.0614327 C227.26506,35.1379522 227.384891,35.1243488 227.494302,35.0580318 C227.598502,34.9985166 227.695756,34.9185962 227.794747,34.8522793 C227.911104,34.7791606 228.032671,34.7264472 228.176815,34.745152 C228.215022,34.7485528 228.258439,34.7553546 228.298383,34.7553546 C228.527624,34.7468524 228.720395,34.6805355 228.847172,34.4730825 C228.944426,34.3132417 229.090307,34.18911 229.229241,34.0632779 C229.265711,34.0292692 229.319548,34.0105644 229.350809,33.9952605 C229.385542,34.0003618 229.399436,33.9986614 229.409856,34.0037627 C229.699881,34.1551013 229.696407,34.161903 230.026376,34.0632779 C230.14447,34.0292692 230.266037,33.9986614 230.380658,34.059877 C230.516119,34.1363965 230.528275,34.2707308 230.543905,34.4050651 C230.592532,34.3829595 230.641159,34.3608538 230.688049,34.3387482 C230.932921,34.2214182 231.189949,34.2333213 231.443504,34.2758321 C231.620645,34.3047395 231.783892,34.3761577 231.875936,34.5393994 C231.881146,34.5530029 231.896776,34.5547033 231.945403,34.5853111 C232.160751,34.5155933 232.384782,34.6499276 232.608814,34.6635311 C232.652231,34.6499276 232.678281,34.6431259 232.704331,34.6329233 C232.937045,34.5274964 233.14892,34.3846599 233.362531,34.2418234 C233.487572,34.1551013 233.623033,34.1091896 233.77586,34.0921852 C234.239553,34.0411722 234.239553,34.0377713 234.731032,34.1653039 C234.810919,34.1823082 234.890806,34.1942113 234.968957,34.2180174 C235.017584,34.2333213 235.069684,34.2656295 235.102681,34.3013386 C235.156518,34.357453 235.194725,34.4322721 235.248562,34.4917873 C235.423966,34.6958394 235.58895,34.9066932 235.868555,34.988314 C235.880712,34.9900145 235.889395,34.9985166 235.901552,35.0070188 C235.946706,35.0427279 235.976229,35.0852388 235.977966,35.1396527 C235.977966,35.2059696 235.976229,35.273987 235.962336,35.336903 C235.931076,35.5069465 235.892869,35.6752894 235.858135,35.8453329 C235.842505,35.9218524 235.840768,36.0034732 235.868555,36.0799928 C235.889395,36.1310058 235.925866,36.1684153 235.976229,36.1939219 C236.017909,36.2126266 236.089113,36.2007236 236.12732,36.1650145 C236.165527,36.1242041 236.17421,36.073191 236.156844,36.0187771 C236.103007,35.8232272 236.104743,35.8232272 236.245414,35.7212012 C236.300988,35.6820912 236.353088,35.6395803 236.408662,35.6021708 L236.405188,35.6055716 C236.478129,35.5732634 236.551069,35.5358538 236.625746,35.5069465 C236.709107,35.4746382 236.787257,35.5290521 236.797677,35.6191751 C236.827201,35.8249276 236.792467,36.0119754 236.66048,36.1803184 C236.601433,36.2517366 236.545859,36.3248553 236.492022,36.397974 C236.582329,36.3911722 236.674373,36.3809696 236.76989,36.370767 C236.76989,36.370767 236.79073,36.3605644 236.795941,36.3520622 C236.867144,36.1089001 236.964398,35.8742402 236.988712,35.6208755 C237.000868,35.5018452 237.080755,35.4236252 237.193639,35.3998191 C237.415934,35.3454052 237.639965,35.2909913 237.87268,35.28589 C238.053294,35.2841896 238.192228,35.3267004 238.263432,35.5035456 C238.272115,35.5290521 238.287746,35.5528582 238.301639,35.5749638 C238.331162,35.6208755 238.40584,35.6191751 238.440573,35.5732634 C238.470097,35.5290521 238.501357,35.4831404 238.529144,35.44233 C238.603821,35.3215991 238.702811,35.2416787 238.845219,35.2161722 C239.07446,35.1651592 239.286335,35.0801375 239.454792,34.9151954 C239.545099,34.8216715 239.67014,34.8029667 239.795181,34.8284732 C239.970585,34.859081 240.137306,34.9151954 240.290134,35.0002171 C240.481168,35.1039436 240.668729,35.1294501 240.870183,35.0257236 C240.963964,34.9747106 241.054271,35.0206223 241.111581,35.1107453 C241.118528,35.1226483 241.125475,35.1311505 241.134158,35.144754 C241.429393,35.6174747 241.50928,36.1327062 241.43634,36.6785456 C241.401606,36.9370116 241.340823,37.1988784 241.281776,37.4573444 M206.171388,19.1963821 C206.298166,18.9957308 206.445783,18.8103835 206.622924,18.6471418 C206.779225,18.5026049 206.966786,18.4464906 207.178661,18.4566932 C207.220341,18.4566932 207.241181,18.4992041 207.253338,18.5366136 C207.371432,18.5859262 207.491262,18.5553184 207.609356,18.5366136 C207.71703,18.5196093 207.822968,18.4719971 207.913275,18.5315123 C208.001845,18.4958032 208.003582,18.4192836 208.043525,18.3665702 C208.064366,18.3376628 208.093889,18.307055 208.125149,18.2815485 C208.159883,18.2509407 208.251927,18.2713459 208.26582,18.3138567 C208.27103,18.3376628 208.28666,18.3648698 208.28666,18.3869754 C208.28145,18.4992041 208.305764,18.5927279 208.397807,18.6726483 C208.456854,18.7219609 208.415174,18.7933792 208.392597,18.8528944 L208.392597,18.9396165 L208.389124,18.9362156 C208.314447,19.016136 208.21893,19.0637482 208.111256,19.0790521 C208.017475,19.094356 207.925431,19.1079595 207.831651,19.121563 C207.564203,19.3239146 207.291545,19.5109624 206.963313,19.6163893 C206.846955,19.6061867 206.728861,19.5959841 206.607294,19.584081 C206.598611,19.584081 206.579507,19.5653763 206.579507,19.5653763 C206.582981,19.5347685 206.588191,19.4990593 206.603821,19.4854559 C206.675024,19.4344428 206.744491,19.3834298 206.820905,19.3392185 C206.980679,19.2490955 206.746228,19.2541968 206.683708,19.2541968 C206.711495,19.0739508 206.805275,18.9209117 206.921632,18.7797757 C206.813959,18.8035818 206.725388,18.8596961 206.648974,18.9328148 C206.563877,19.016136 206.480517,19.1011577 206.391946,19.1810781 C206.352003,19.2184877 206.305112,19.2473951 206.259959,19.2712012 C206.240855,19.2814038 206.204385,19.274602 206.187018,19.2643994 C206.171388,19.2507959 206.160968,19.2133864 206.171388,19.1963821 M212.218496,18.6420405 C212.218496,18.6420405 212.199392,18.6590449 212.188972,18.6658466 C212.063931,18.7168596 211.909367,18.6658466 211.799957,18.7508683 C211.706176,18.823987 211.634972,18.926013 211.549875,19.0076339 C211.511668,19.0484443 211.456095,19.0586469 211.400521,19.0484443 C211.346684,19.0399421 211.294584,19.0263386 211.240747,19.016136 C211.225117,18.9668234 211.200803,18.9209117 211.19212,18.8681983 C211.143493,18.6420405 211.23901,18.5995297 211.407468,18.5706223 C211.664496,18.526411 211.916314,18.5366136 212.171605,18.5961288 C212.204602,18.6012301 212.221969,18.6131331 212.218496,18.6420405 M210.342885,17.3718162 C210.388039,17.2714906 210.455769,17.1915702 210.540866,17.1235528 C210.55997,17.104848 210.584283,17.0912446 210.610333,17.081042 C210.639857,17.0674385 210.667644,17.0759407 210.6798,17.104848 C210.69543,17.1354559 210.698904,17.1796671 210.714534,17.2170767 C210.740584,17.2816932 210.789211,17.3242041 210.858678,17.3446093 C210.882991,17.3497106 210.910778,17.339508 210.935092,17.3310058 C210.942038,17.3310058 210.950722,17.3089001 210.947248,17.2969971 C210.936828,17.2595876 210.914252,17.2238784 210.910778,17.1847685 C210.909042,17.1490593 210.909042,17.104848 210.928145,17.0742402 C211.001085,16.9603111 211.103549,16.8701881 211.22859,16.8106729 C211.327581,16.7681621 211.431781,16.7341534 211.525562,16.6848408 C211.699229,16.5913169 211.869424,16.5590087 212.069141,16.60322 C212.284489,16.6457308 212.503311,16.6406295 212.709975,16.5505065 C212.744709,16.536903 212.789862,16.5232996 212.826332,16.525 C213.06252,16.5573082 213.283078,16.473987 213.508846,16.4382779 C213.53316,16.4365774 213.55921,16.4382779 213.59568,16.4382779 C213.61652,16.4637844 213.644307,16.4926918 213.666884,16.5232996 C213.710301,16.5777135 213.772821,16.6083213 213.842288,16.6168234 C214.003799,16.6355282 214.167047,16.6338278 214.325084,16.5845152 C214.479648,16.536903 214.637686,16.5062952 214.804407,16.5164978 C214.941604,16.5198987 215.064908,16.4518813 215.196896,16.4297757 C215.214262,16.4297757 215.250733,16.4552822 215.254206,16.473987 C215.28894,16.6049204 215.247259,16.7086469 215.143059,16.7919682 C215.111799,16.8157742 215.068382,16.8276773 215.028438,16.8327786 C214.976338,16.8361795 214.922501,16.8259768 214.866927,16.8157742 C214.700206,16.7987699 214.547379,16.8446816 214.396288,16.9007959 C214.361554,16.9160999 214.333768,16.9688133 214.345924,16.9994211 C214.354608,17.0215268 214.371974,17.053835 214.392815,17.0606368 C214.443178,17.0776411 214.495278,17.0895441 214.549115,17.0946454 C214.700206,17.1116498 214.847824,17.0912446 214.995441,17.0742402 C215.132639,17.053835 215.264626,17.0844428 215.384457,17.1507598 C215.42961,17.1728654 215.441767,17.261288 215.401824,17.2884949 C215.35667,17.3174023 215.311516,17.3548119 215.259416,17.3650145 C215.143059,17.390521 215.021491,17.402424 214.899924,17.4228292 C214.861717,17.4279305 214.820037,17.4228292 214.795723,17.4738423 C214.832194,17.4840449 214.870401,17.5010492 214.906871,17.5061505 C215.042331,17.5146527 215.177792,17.5146527 215.313253,17.5214544 C215.32541,17.5214544 215.34104,17.5299566 215.34625,17.5418596 C215.36188,17.5673661 215.353197,17.5962735 215.323673,17.6030753 C215.193422,17.6472865 215.068382,17.6931983 214.938131,17.7255065 C214.79225,17.7578148 214.644633,17.7799204 214.495278,17.7969247 C214.418865,17.8054269 214.337241,17.8054269 214.255617,17.7969247 C214.173993,17.790123 214.095843,17.7629161 214.015956,17.7527135 C213.718984,17.7136035 213.451536,17.77822 213.206664,17.9482634 C213.140671,17.9924747 213.081624,18.0468886 213.01042,18.0842981 C212.965266,18.1098046 212.906219,18.1132055 212.855856,18.1132055 C212.835016,18.1166064 212.803756,18.087699 212.796809,18.0723951 C212.789862,18.0468886 212.795072,18.0128799 212.808966,17.9958755 C212.847172,17.958466 212.892326,17.9261577 212.93748,17.9023517 C213.03126,17.8479378 213.128514,17.8054269 213.224031,17.7527135 C213.269185,17.7272069 213.305655,17.6897974 213.331705,17.6676918 C213.389016,17.5860709 213.335179,17.5214544 213.335179,17.4585384 C213.335179,17.3939219 213.343862,17.3242041 213.342125,17.2595876 C213.340389,17.1847685 213.298708,17.1354559 213.239661,17.0997467 C213.168458,17.0555355 213.08857,17.0351302 213.006947,17.0402315 C212.682188,17.0606368 212.359166,17.081042 212.034408,17.1065485 C211.982308,17.1082489 211.921524,17.1269537 211.88679,17.1575615 C211.80864,17.2391823 211.706176,17.2748915 211.612396,17.3242041 C211.459568,17.4058249 211.29111,17.4585384 211.16086,17.5792692 C210.995875,17.5894718 210.844785,17.6472865 210.688484,17.6914978 C210.639857,17.7051013 210.582546,17.7323082 210.533919,17.7 C210.506133,17.6829957 210.499186,17.6336831 210.473136,17.6030753 C210.455769,17.5860709 210.424509,17.58267 210.401932,17.570767 C210.318572,17.5299566 210.297731,17.4636397 210.342885,17.3718162 M210.514816,16.5011939 C210.54955,16.4637844 210.584283,16.4263748 210.62249,16.3855644 C210.66938,16.3396527 210.66938,16.3396527 210.615543,16.2563314 C210.60686,16.2444284 210.60165,16.2342258 210.59123,16.2257236 C210.598176,16.2342258 210.686747,16.1628075 210.693694,16.1458032 C210.70585,16.1202967 210.698904,16.047178 210.686747,16.0216715 C210.662434,15.9740593 210.587756,15.9876628 210.55997,15.9468524 C210.525236,15.8873372 210.619017,15.8482272 210.662434,15.815919 C210.777054,15.7359986 210.896885,15.6543777 211.018452,15.5846599 C211.26506,15.4435239 211.530772,15.3329957 211.810377,15.2700796 C211.779116,15.4809334 211.648866,15.6237699 211.490828,15.7308973 C211.417888,15.9026411 211.350157,16.0607815 211.29111,16.2087192 C211.2338,16.2886397 211.157386,16.3124457 211.084446,16.3464544 C210.912515,16.422974 210.740584,16.4994935 210.57039,16.576013 C210.542603,16.5879161 210.518289,16.5675109 210.511343,16.5403039 C210.507869,16.5284009 210.507869,16.5113965 210.514816,16.5011939 M212.011831,15.6118669 C212.069141,15.557453 212.138608,15.5098408 212.194182,15.4537265 C212.225442,15.4248191 212.218496,15.3823082 212.182025,15.3517004 C212.135135,15.3091896 212.128188,15.2581766 212.169869,15.2156657 C212.225442,15.1527496 212.284489,15.0983357 212.348746,15.052424 C212.41474,15.0082127 212.49289,14.9793054 212.562358,14.9367945 C212.666558,14.8738784 212.775969,14.8126628 212.841962,14.7106368 C212.949636,14.5541968 213.112884,14.4759768 213.284815,14.4521708 C213.57484,14.4164616 213.823185,14.2804269 214.076739,14.1664978 C214.16531,14.123987 214.250407,14.0933792 214.347661,14.0797757 C214.641159,14.0491679 214.939868,14.0185601 215.235103,13.9828509 C215.34104,13.9709479 215.44524,13.9335384 215.552914,13.9199349 C215.875936,13.8893271 216.195485,13.8349132 216.515033,13.7770984 C216.739064,13.7379884 216.973516,13.7277858 217.19581,13.8298119 C217.273961,13.8638205 217.355585,13.8485166 217.437208,13.8366136 C217.569196,13.8179088 217.70292,13.7941027 217.836644,13.7804993 C217.880061,13.7736975 217.916531,13.7958032 217.933898,13.838314 C217.949528,13.8740232 217.959948,13.9199349 218.005101,13.928437 C218.084989,13.943741 218.166612,13.9573444 218.244763,13.9267366 C218.331597,13.8893271 218.414957,13.8400145 218.501791,13.8077062 C218.586888,13.7770984 218.661565,13.814508 218.720612,13.8740232 C218.760556,13.916534 218.779659,13.967547 218.769239,14.0202605 C218.760556,14.0593705 218.743189,14.09678 218.725822,14.1324891 C218.680669,14.2243126 218.698035,14.2991317 218.802236,14.3705499 C218.835233,14.3909551 218.869966,14.4147612 218.901227,14.4402677 C218.944643,14.4759768 218.949853,14.5405933 218.913383,14.5814038 C218.885596,14.6103111 218.849126,14.6358177 218.823076,14.6630246 C218.751872,14.7565485 218.776186,14.9299928 218.875176,14.9810058 C218.94638,15.0235166 219.022794,15.0473227 219.097471,15.0813314 C219.170411,15.1153401 219.253772,15.1408466 219.312819,15.1918596 C219.423966,15.2921852 219.55248,15.3585022 219.686204,15.4265195 C219.828612,15.4979378 219.957126,15.596563 220.094323,15.6849855 C220.10127,15.6883864 220.109953,15.710492 220.104743,15.7223951 C220.094323,15.7428003 220.08043,15.7734081 220.061326,15.7802098 C219.997069,15.7989146 219.929339,15.815919 219.863345,15.8193198 C219.658417,15.8227207 219.4587,15.8346237 219.274612,15.9383502 C219.206882,15.9740593 219.116574,15.9825615 219.038424,15.9825615 C218.751872,15.9842619 218.467057,15.9978654 218.185716,15.9383502 C218.081515,15.9162446 217.970368,15.9162446 217.864431,15.8992402 C217.81233,15.8907381 217.76023,15.8652315 217.722023,15.8312229 C217.66645,15.7802098 217.605666,15.7598046 217.537936,15.7921129 C217.452838,15.8312229 217.362531,15.8533285 217.265277,15.8414255 C217.181917,15.827822 217.100293,15.8193198 217.020406,15.8261216 C216.796375,15.8482272 216.598394,15.7393994 216.393466,15.6883864 C216.325735,15.6713821 216.280582,15.6118669 216.256268,15.5472504 C216.245848,15.5098408 216.238902,15.4707308 216.230218,15.42822 C216.216325,15.3755065 216.178118,15.3329957 216.124281,15.3176918 C215.96798,15.2751809 215.811679,15.2258683 215.651905,15.208864 C215.460871,15.1867583 215.275046,15.2428726 215.103115,15.3261939 C215.052752,15.3482996 215.007598,15.3755065 214.950288,15.401013 C214.585586,15.2734805 214.585586,15.2734805 214.24346,15.2683792 C214.189623,15.2683792 214.135786,15.2700796 214.080213,15.2683792 C213.619993,15.2428726 213.196244,15.3772069 212.796809,15.5880608 C212.760339,15.608466 212.725605,15.6254703 212.690872,15.6492764 C212.584934,15.7172938 212.46684,15.7479016 212.3418,15.7138929 C212.225442,15.6849855 212.105612,15.6917873 211.977098,15.7053907 C211.994464,15.6560781 211.994464,15.6254703 212.011831,15.6118669 M220.483339,18.8137844 C220.488549,18.7831766 220.540649,18.7406657 220.571909,18.7474674 C220.597959,18.7542692 220.620536,18.7661722 220.63964,18.784877 C220.657006,18.8035818 220.6709,18.8307887 220.679583,18.8528944 C220.698687,18.9005065 220.71258,18.9515195 220.73342,19.0025326 C220.771627,19.0892547 220.823727,19.133466 220.919245,19.1079595 C220.957451,19.094356 220.997395,19.0756512 221.035602,19.0790521 C221.24574,19.0892547 221.433301,19.0450434 221.603495,18.9175109 C221.659069,18.8732996 221.732009,18.886903 221.792793,18.9277135 C221.84663,18.9668234 221.896993,19.0110347 221.952567,19.0484443 C222.117551,19.1538712 222.126235,19.1742764 222.060241,19.3681259 C222.060241,19.3681259 222.044611,19.391932 222.032454,19.4106368 C221.671225,19.572178 221.306523,19.740521 220.940085,19.9071635 C220.887984,19.9292692 220.815044,19.9071635 220.799414,19.8663531 C220.703897,19.6061867 220.606643,19.3443198 220.514599,19.0841534 C220.490285,19.0212373 220.481602,18.9549204 220.471182,18.8903039 C220.465972,18.8647974 220.478129,18.83589 220.483339,18.8137844 M222.47878,32.4138567 C222.374579,32.5787988 222.232172,32.6893271 222.046348,32.7539436 C221.829263,32.8321635 221.631282,32.9477931 221.433301,33.0617221 C221.374254,33.09233 221.315207,33.0719247 221.304787,33.0175109 C221.296103,32.9528944 221.304787,32.872974 221.233583,32.8423661 C221.186693,32.8270622 221.127646,32.8321635 221.075545,32.8389653 C221.019972,32.8423661 220.969608,32.8627713 220.914035,32.8695731 C220.79073,32.8916787 220.67611,32.872974 220.568436,32.8015557 C220.514599,32.7641462 220.455552,32.7335384 220.401715,32.7063314 C220.247151,32.7471418 220.103007,32.7930535 219.962336,32.8270622 C219.884185,32.845767 219.797352,32.8678726 219.722674,32.85767 C219.53685,32.8321635 219.373603,32.8831766 219.208618,32.9443922 C219.146098,32.9664978 219.081841,32.986903 219.036687,33.0039074 C218.970694,32.9920043 218.9568,32.9528944 218.94117,32.9171852 C218.923803,32.8763748 218.885596,32.8508683 218.84218,32.8627713 C218.656355,32.9103835 218.484424,32.9852026 218.390644,33.1671491 C218.2986,33.3320912 218.133616,33.4358177 218.022468,33.5837554 C218.012048,33.5990593 217.970368,33.6007598 217.949528,33.5922576 C217.930424,33.582055 217.913058,33.554848 217.907848,33.5293415 C217.885271,33.4460203 217.914794,33.3695007 217.966895,33.3065847 C218.074569,33.1909551 218.185716,33.0736252 218.30902,32.9681983 C218.39759,32.8882779 218.500054,32.8236614 218.600782,32.7522431 C218.632042,32.7301375 218.666775,32.7063314 218.704982,32.6961288 C218.975904,32.6094067 219.234668,32.4869754 219.51601,32.446165 C219.59416,32.4342619 219.677521,32.4308611 219.757408,32.446165 C219.865082,32.4665702 219.969283,32.4665702 220.078693,32.446165 C220.210681,32.4274602 220.347878,32.4172576 220.481602,32.4138567 C220.672636,32.407055 220.860198,32.4138567 221.049495,32.4172576 C221.24053,32.4172576 221.428091,32.418958 221.617388,32.3883502 C221.669489,32.379848 221.728536,32.3730463 221.775426,32.3900507 C221.870943,32.4274602 221.957777,32.4274602 222.051558,32.3900507 C222.197438,32.3254342 222.339846,32.3441389 222.47878,32.4138567 M222.999783,33.0821274 C223.01194,33.0617221 223.02757,33.0311143 223.04841,33.026013 C223.161294,32.9801013 223.277651,32.9443922 223.390535,32.9001809 C223.453055,32.8763748 223.513839,32.845767 223.569413,32.8083575 C223.67014,32.7335384 223.67014,32.6485166 223.578096,32.5839001 C223.513839,32.536288 223.447845,32.4903763 223.388798,32.4342619 C223.315858,32.3696454 223.227288,32.3441389 223.135244,32.3339363 C223.180397,32.2625181 223.239444,32.2081042 223.324541,32.1979016 C223.503419,32.1757959 223.652773,32.0992764 223.795181,31.9870478 C223.934115,31.87822 224.106046,31.8323082 224.283187,31.8051013 C224.349181,31.7948987 224.420384,31.7914978 224.484641,31.8102026 C224.673939,31.8595152 224.85629,31.8561143 225.045588,31.811903 C225.094215,31.8 225.153262,31.8170043 225.203625,31.8255065 C225.234885,31.8323082 225.274829,31.8884226 225.266146,31.91733 C225.260936,31.941136 225.248779,31.9717438 225.229675,31.9836469 C225.160208,32.0227569 225.083795,32.0516643 225.010854,32.0873734 C224.901444,32.1383864 224.790296,32.1893994 224.699989,32.2727207 C224.660046,32.3067294 224.614892,32.3492402 224.568002,32.3577424 C224.387387,32.3900507 224.31792,32.4920767 224.309237,32.6621201 C224.304027,32.7335384 224.23456,32.7709479 224.159883,32.7709479 C224.133833,32.7709479 224.106046,32.7641462 224.078259,32.7590449 C223.967112,32.7403401 223.862911,32.7641462 223.769131,32.8236614 C223.600673,32.93589 223.404429,32.9954052 223.220341,33.077026 C223.185607,33.0974313 223.145664,33.1025326 223.103984,33.1144356 C223.062303,33.1263386 222.989363,33.1025326 222.999783,33.0821274 M237.969934,19.8833575 C233.628243,15.6305716 227.626289,13 221.000868,13 C214.371974,13 208.373494,15.6305716 204.02833,19.8833575 C199.686638,24.1361433 197,30.0094428 197,36.5 C197,42.9888567 199.686638,48.8638567 204.02833,53.1166425 C208.373494,57.3677279 214.371974,60 221.000868,60 C227.626289,60 233.628243,57.3677279 237.969934,53.1166425 C242.313362,48.8638567 245,42.9888567 245,36.5 C245,30.0094428 242.313362,24.1361433 237.969934,19.8833575 M212.242809,24.2993849 C212.35743,24.3214906 212.447737,24.3435962 212.539781,24.3554993 C212.694345,24.3742041 212.836752,24.3435962 212.956583,24.2415702 C213.081624,24.1361433 213.230978,24.0766281 213.385542,24.0273155 C213.493216,23.9933068 213.521003,23.8929812 213.456746,23.8045586 C213.434169,23.7722504 213.409856,23.7382417 213.382069,23.7127352 C213.303918,23.6328148 213.213611,23.5784009 213.093781,23.6056078 C212.998263,23.6277135 212.907956,23.6090087 212.822859,23.5596961 C212.751655,23.5188857 212.678715,23.4882779 212.590144,23.5001809 C212.248019,23.5324891 212.126452,23.6056078 211.938891,23.8929812 C211.900684,23.9473951 211.869424,24.0035094 211.8399,24.064725 C211.786063,24.1582489 211.723543,24.2449711 211.638446,24.311288 C211.452621,24.452424 211.339737,24.647974 211.225117,24.8418234 C211.21296,24.8571274 211.22859,24.8843343 211.237273,24.9098408 C211.23901,24.9132417 211.26506,24.9149421 211.272007,24.9098408 C211.381418,24.8571274 211.485618,24.7959117 211.612396,24.8044139 C211.683599,24.8095152 211.74612,24.7738061 211.794747,24.7278944 C211.940627,24.5901592 212.084772,24.4507236 212.242809,24.2993849" id="Fill-4" fill="#581265"></path>
                <path d="M260.322654,197.588132 C251.374045,204.923007 238.4273,210.801978 226.104211,210.69463 C206.044426,210.523544 194.4141,196.447561 194.587712,176.485898 C194.845601,146.827708 214.519394,125.608063 242.02933,125.846241 C254.642335,125.953589 266.048483,132.322334 271.147285,139.497865 L260.322654,197.588132 Z M300.737195,197.363372 L319.687885,94.2859819 L279.56663,93.9404561 L277.447888,106.755102 C269.510612,96.7029852 255.801996,91.1645086 237.174933,91.0034868 C190.46316,90.6009325 153.477036,125.083065 153.003395,179.550343 C152.693253,215.198206 173.644696,244.750726 210.329106,245.067737 C228.384766,245.22205 246.206134,239.103224 258.347184,227.227872 C259.936662,242.072062 269.075739,245.856073 285.410448,245.996967 C298.306626,246.109347 310.944914,243.081803 318.998493,239.730538 L323,208.108218 C318.10515,210.630892 313.215356,212.584958 307.482785,212.536316 C300.032634,212.472578 298.943765,205.900879 300.737195,197.363372 L300.737195,197.363372 Z" id="Fill-9" fill="#581265"></path>
                <path d="M568.724841,199.998204 L576.237036,159.852936 C583.157228,122.859695 570.790948,93.4542909 530.929427,93.1080072 C509.425053,92.9221964 490.712031,101.091115 478.247926,116.493141 C472.639923,101.508345 460.390019,92.212737 436.30006,92.0032775 C416.225937,91.829291 401.257206,98.5944934 388.830208,109.400236 L391.829014,94.4931422 L351.680768,94.1434801 L324,244.119824 L364.146559,244.466108 L381.004302,152.415437 C387.700174,140.41037 399.845507,129.028613 415.903793,129.167127 C434.831016,129.330978 441.020903,143.168815 437.104577,164.964422 L422.361852,244.971175 L462.506724,245.319148 L478.45538,159.004963 L479.652879,152.697531 C485.776987,140.976248 497.918948,129.878276 513.403784,130.011722 C532.044282,130.173884 538.807618,144.015099 534.887919,166.097868 L527.062013,209.114758 C521.943129,237.219486 534.746243,248.81408 555.683914,248.996513 C567.724677,249.099553 579.502328,246.908675 586.987537,243.81577 L591,210.81915 C585.528612,213.354623 580.062285,215.31746 575.474685,215.278609 C568.018149,215.21442 567.213632,208.599555 568.724841,199.998204" id="Fill-11" fill="#581265"></path>
                <path d="M639.781704,81.9977291 C656.584165,82.1401035 667.841276,75.6044384 667.999021,57.7381402 C668.101296,46.2125897 660.179368,42.1074598 647.802439,42.0023739 C631.001712,41.8599994 619.15869,48.102441 619.000945,65.9687392 C618.89867,77.4942897 627.110086,81.8909482 639.781704,81.9977291" id="Fill-13" fill="#581265"></path>
                <path d="M636.861035,199.049254 L655.997737,95.347624 L616.091612,95 L595.169645,208.154977 C590.083735,235.94127 601.951977,247.807735 623.613194,247.996734 C636.440283,248.108109 649.005868,245.350742 655.013746,242.822874 L659,209.861035 C656.135194,211.55528 649.557372,214.366646 643.854581,214.317709 C635.875368,214.248522 635.360742,207.641979 636.861035,199.049254" id="Fill-15" fill="#581265"></path>
                <path d="M730.950141,210.977931 C725.469726,213.501941 719.989311,215.457208 713.950878,215.406728 C706.762589,215.344469 704.224452,209.315449 706.04393,199.030949 L735,43.3466307 L694.74998,43 L664.290642,206.109956 C658.553201,237.819939 672.542548,248.807797 694.394878,248.996256 C708.193145,249.115726 719.718757,246.356141 726.929028,243.559538 L730.950141,210.977931 Z" id="Fill-17" fill="#581265"></path>
                <path d="M851.995915,96.7049642 L794.508035,203.106354 L775.040283,96.0354846 L731.968706,95.6599642 L771.18963,243.061037 L766.815424,250.824623 C758.950297,263.753737 752.008989,270.052623 739.6565,269.945574 C729.035116,269.852119 719.305463,266.011956 713.02113,261.911818 L701.551927,293.307696 C708.114925,298.27272 721.2747,303.878338 734.768873,303.997281 C769.228837,304.294639 784.315627,286.516046 803.840801,252.880639 L893.919053,97.0702894 L851.995915,96.7049642 Z" id="Fill-19" fill="#581265"></path>
                <polygon id="Fill-6" fill="#581265" points="71.4261135 73.8574508 175.92575 74.7564262 182.882477 37.932041 37.9692605 36.6852377 -0.000338033372 240.273762 40.414932 240.61991 53.7080943 169.066508 142.521292 169.831057 149.17717 133.003311 60.663131 132.242123"></polygon>
            </g>
        </g>
    </g>
</svg>