<?xml version="1.0" encoding="UTF-8"?>
<svg width="1000px" height="190px" viewBox="0 0 1000 190" version="1.1" xmlns="http://www.w3.org/2000/svg" xmlns:xlink="http://www.w3.org/1999/xlink">
    <title>Motor-Trend</title>
    <g id="Symbols" stroke="none" stroke-width="1" fill="none" fill-rule="evenodd">
        <g id="Logos/Network-Logo/Centered/Color/Motor-Trend" transform="translate(0.000000, -156.000000)" fill="#EE3220" fill-rule="nonzero">
            <g id="Motor-Trend" transform="translate(0.000000, 156.000000)">
                <path d="M948.485498,31.2804878 C950.221942,31.2804878 950.800757,31.2804878 952.537201,31.2804878 C958.325347,31.2804878 960.061791,33.0182927 960.061791,37.0731707 C960.061791,37.652439 960.061791,39.3902439 959.482976,43.445122 L943.854981,148.292683 C942.697352,156.981707 942.118537,159.878049 933.436318,159.878049 C932.278689,159.878049 931.121059,159.878049 929.384615,159.878049 L948.485498,31.2804878 Z M913.177806,1.15853659 L884.237074,190 L929.96343,190 C950.221942,190 962.955864,189.420732 971.059269,181.310976 C978.005044,174.359756 979.741488,165.091463 981.477932,150.609756 L998.263556,39.3902439 C1000,30.7012195 1000,24.9085366 1000,21.4329268 C1000,2.31707317 986.108449,0.579268293 957.746532,0.579268293 L913.177806,1.15853659 L913.177806,1.15853659 L913.177806,1.15853659 Z M809.569987,1.15853659 L781.208071,190 L815.358134,190 L829.249685,97.3170732 L830.986129,97.3170732 L836.19546,190 L873.239596,190 L901.601513,1.15853659 L867.45145,1.15853659 L852.981084,97.8963415 L851.244641,97.8963415 L847.192938,1.15853659 L809.569987,1.15853659 Z M738.954603,1.15853659 L710.013871,190 L773.68348,190 L777.735183,159.29878 L754.003783,159.29878 L762.686003,101.371951 L786.417402,101.371951 L791.047919,70.6707317 L767.31652,70.6707317 L773.104666,31.2804878 L796.836066,31.2804878 L801.466583,0.579268293 L738.954603,1.15853659 L738.954603,1.15853659 Z M672.969735,31.2804878 L676.442623,31.2804878 C682.230769,31.2804878 684.546028,31.8597561 684.546028,36.4939024 C684.546028,36.4939024 684.546028,39.3902439 683.967213,43.445122 L680.494325,66.6158537 C678.757881,75.8841463 678.757881,79.3597561 670.075662,79.3597561 C668.918033,79.3597561 667.760404,79.3597561 666.02396,79.3597561 L672.969735,31.2804878 Z M637.662043,1.15853659 L608.721311,189.420732 L648.659521,189.420732 L660.235813,114.695122 L663.129887,114.695122 C668.918033,114.695122 671.812106,116.432927 671.812106,120.487805 C671.812106,122.22561 671.812106,123.384146 671.812106,124.542683 L661.972257,189.420732 L701.910467,189.420732 L711.171501,128.018293 C711.750315,123.963415 711.750315,119.908537 711.750315,116.432927 C711.750315,106.006098 707.698613,100.213415 697.27995,96.7378049 C715.802018,90.3658537 718.696091,79.3597561 721.590164,58.5060976 L724.484237,38.8109756 C725.641866,31.2804878 726.220681,25.4878049 726.220681,20.8536585 C726.220681,2.31707317 712.907945,0 683.967213,0 L637.662043,1.15853659 L637.662043,1.15853659 L637.662043,1.15853659 Z M548.52459,1.15853659 L543.894073,32.4390244 L564.7314,32.4390244 L541,190 L580.938209,190 L604.669609,32.4390244 L625.506936,32.4390244 L630.137453,1.15853659 L548.52459,1.15853659 Z" id="Shape"></path>
                <path d="M483.707317,31.0909091 L487.117709,31.0909091 C492.801697,31.0909091 495.075292,31.6666667 495.075292,36.2727273 C495.075292,36.2727273 495.075292,39.1515152 494.506893,43.1818182 L491.096501,66.2121212 C489.391304,75.4242424 489.391304,78.8787879 480.865323,78.8787879 C479.728526,78.8787879 478.591729,78.8787879 476.886532,78.8787879 L483.707317,31.0909091 Z M449.034995,1.15151515 L420.615058,188.848485 L459.834571,188.848485 L471.202545,114.575758 L474.044539,114.575758 C479.728526,114.575758 482.57052,116.30303 482.57052,120.333333 C482.57052,122.060606 482.57052,123.212121 482.57052,124.363636 L472.907741,188.848485 L512.127253,188.848485 L521.221633,127.818182 C521.790032,123.787879 521.790032,119.757576 521.790032,116.30303 C521.790032,105.939394 517.811241,100.181818 507.580064,96.7272727 C525.768823,90.3939394 528.610817,79.4545455 531.45281,58.7272727 L534.294804,39.1515152 C535.431601,31.6666667 536,25.9090909 536,21.3030303 C536,2.87878788 522.926829,0.575757576 494.506893,0.575757576 L449.034995,1.15151515 L449.034995,1.15151515 L449.034995,1.15151515 Z M392.195122,39.7272727 L375.711559,149.69697 C375.14316,156.030303 373.437964,158.909091 368.322375,158.909091 C364.343584,158.909091 363.206787,157.181818 363.206787,153.727273 C363.206787,152.575758 363.206787,151.424242 363.206787,149.69697 L379.69035,39.7272727 C380.258749,33.969697 381.395546,30.5151515 386.511135,30.5151515 C390.489926,30.5151515 392.195122,32.2424242 392.195122,35.6969697 C392.195122,36.2727273 392.195122,37.4242424 392.195122,39.7272727 M431.414634,38.5757576 C432.551432,30.5151515 433.11983,24.7575758 433.11983,20.1515152 C433.11983,1.15151515 419.478261,0 392.195122,0 C371.732768,0 358.659597,0 351.270414,8.63636364 C345.018028,15.5454545 343.312831,25.3333333 341.039236,39.1515152 L323.987275,150.848485 C322.282078,159.484848 322.282078,166.393939 322.282078,171.575758 C322.282078,188.272727 336.492047,190 363.206787,190 C383.669141,190 396.173913,189.424242 403.563097,181.363636 C410.95228,174.454545 412.089077,164.090909 413.794274,150.272727 L431.414634,38.5757576 Z M260.326617,1.15151515 L255.779427,31.6666667 L276.241782,31.6666667 L252.937434,188.272727 L292.156946,188.272727 L315.461294,31.6666667 L335.355249,31.6666667 L339.902439,0.575757576 L260.326617,1.15151515 Z M209.170732,39.7272727 L192.687169,149.69697 C192.11877,156.030303 190.413574,158.909091 185.297985,158.909091 C181.319194,158.909091 180.182397,157.181818 180.182397,153.727273 C180.182397,152.575758 180.182397,151.424242 180.182397,149.69697 L196.66596,39.7272727 C197.234358,33.969697 198.371156,30.5151515 203.486744,30.5151515 C207.465536,30.5151515 209.170732,32.2424242 209.170732,35.6969697 C209.73913,36.2727273 209.73913,37.4242424 209.170732,39.7272727 M248.390244,38.5757576 C249.527041,30.5151515 250.09544,24.7575758 250.09544,20.1515152 C250.09544,1.15151515 236.453871,0 209.170732,0 C188.708378,0 175.635207,0 168.246023,8.63636364 C161.993637,15.5454545 160.288441,25.3333333 158.014846,39.1515152 L141.531283,150.848485 C139.826087,159.484848 139.826087,166.393939 139.826087,171.575758 C139.826087,188.272727 154.036055,190 180.750795,190 C201.21315,190 213.717922,189.424242 221.107105,181.363636 C228.496288,174.454545 229.633086,164.090909 231.338282,150.272727 L248.390244,38.5757576 Z M27.8515376,1.15151515 L0,188.272727 L35.2407211,188.272727 L51.1558855,80.030303 L52.8610817,80.030303 L51.1558855,188.272727 L72.7550371,188.272727 L102.88017,80.030303 L104.585366,80.030303 L88.6702015,188.272727 L123.910923,188.272727 L152.330859,0.575757576 L104.585366,0.575757576 L77.3022269,95.5757576 L75.5970308,95.5757576 L76.7338282,0.575757576 L27.8515376,1.15151515 L27.8515376,1.15151515 Z" id="Shape"></path>
            </g>
        </g>
    </g>
</svg>