<?xml version="1.0" encoding="UTF-8"?>
<svg width="700px" height="426px" viewBox="0 0 700 426" version="1.1" xmlns="http://www.w3.org/2000/svg" xmlns:xlink="http://www.w3.org/1999/xlink">
    <!-- Generator: Sketch 64 (93537) - https://sketch.com -->
    <title>Discovery-Life</title>
    <desc>Created with Sketch.</desc>
    <defs>
        <linearGradient x1="50%" y1="0%" x2="50%" y2="100%" id="linearGradient-1">
            <stop stop-color="#253C7E" offset="0%"></stop>
            <stop stop-color="#181B4B" offset="100%"></stop>
        </linearGradient>
    </defs>
    <g id="Symbols" stroke="none" stroke-width="1" fill="none" fill-rule="evenodd">
        <g id="Network-Logo/Centered/Color/Discovery-Life" transform="translate(-150.000000, -37.000000)">
            <g id="Discovery-Life" transform="translate(150.000000, 37.000000)">
                <g id="Group">
                    <rect id="logo-bg" fill-opacity="0" fill="#D8D8D8" x="0" y="0" width="700" height="425.833333"></rect>
                    <path d="M512.942814,1.67882436 L499.918123,1.67882436 L487.264328,22.5932215 L474.835445,1.67882436 L461.438671,1.67882436 L481.459949,33.2370551 L481.459949,53.7787756 L492.921535,53.7787756 L492.921535,33.0133304 L512.942814,1.67882436 Z M449.676807,19.6165562 C449.676807,24.0073749 446.475824,26.9846337 440.894576,26.9846337 L429.282852,26.9846337 L429.282852,12.024754 L440.670258,12.024754 C446.252693,12.024754 449.676807,14.5551569 449.676807,19.4676042 L449.676807,19.6165562 Z M462.85045,53.7787756 L450.12307,35.1716502 C456.747574,32.71602 461.287345,27.4314895 461.287345,19.0213418 L461.287345,18.8717964 C461.287345,8.15378356 453.919267,1.67882436 441.638149,1.67882436 L417.820673,1.67882436 L417.820673,53.7787756 L429.282852,53.7787756 L429.282852,37.1068387 L438.288214,37.1068387 L449.453676,53.7787756 L462.85045,53.7787756 Z M410.605701,53.7787756 L410.605701,43.5817979 L382.323226,43.5817979 L382.323226,32.6412473 L406.883683,32.6412473 L406.883683,22.4442695 L382.323226,22.4442695 L382.323226,11.8758021 L410.233024,11.8758021 L410.233024,1.67882436 L370.934633,1.67882436 L370.934633,53.7787756 L410.605701,53.7787756 Z M365.877981,1.67882436 L353.522684,1.67882436 L339.902185,38.3720401 L326.281686,1.67882436 L313.629078,1.67882436 L334.692427,54.1508588 L344.814632,54.1508588 L365.877981,1.67882436 Z M302.240485,27.8771585 C302.240485,36.8089348 295.840298,44.102833 286.610618,44.102833 C277.382125,44.102833 270.832986,36.6599828 270.832986,27.7282066 L270.832986,27.579848 C270.832986,18.6486652 277.233173,11.354767 286.46226,11.354767 C295.691346,11.354767 302.240485,18.7976171 302.240485,27.7282066 L302.240485,27.8771585 Z M314.224293,27.7282066 L314.224293,27.579848 C314.224293,12.7683269 302.687341,0.785706075 286.610618,0.785706075 C270.535082,0.785706075 258.849179,12.9172789 258.849179,27.7282066 L258.849179,27.8771585 C258.849179,42.6886796 270.38613,54.6718939 286.46226,54.6718939 C302.538389,54.6718939 314.224293,42.5397277 314.224293,27.7282066 L314.224293,27.7282066 Z M256.473069,45.3686279 L249.179764,37.999957 C245.086256,41.7219755 241.43901,44.102833 235.484492,44.102833 C226.553309,44.102833 220.376254,36.6599828 220.376254,27.7282066 L220.376254,27.579848 C220.376254,18.6486652 226.702261,11.354767 235.484492,11.354767 C240.694843,11.354767 244.788352,13.587266 248.807087,17.2345118 L256.101579,8.82377063 C251.263904,4.06086874 245.384159,0.785706075 235.559265,0.785706075 C219.556722,0.785706075 208.393633,12.9172789 208.393633,27.7282066 L208.393633,27.8771585 C208.393633,42.8376316 219.780446,54.6718939 235.113002,54.6718939 C245.160435,54.6718939 251.114952,51.0994208 256.473069,45.3686279 L256.473069,45.3686279 Z M203.707284,38.3720401 L203.707284,38.2230882 C203.707284,29.1429534 197.75336,25.347349 187.184893,22.5932215 C178.178937,20.2859498 175.945845,19.1697003 175.945845,15.7455857 L175.945845,15.5972272 C175.945845,13.0662308 178.253116,11.0568631 182.643935,11.0568631 C187.035941,11.0568631 191.575711,12.9920516 196.190255,16.1924416 L202.144179,7.55856918 C196.859648,3.31610897 190.384689,0.934658028 182.793481,0.934658028 C172.15024,0.934658028 164.558438,7.18648602 164.558438,16.6392974 L164.558438,16.7876559 C164.558438,27.1335856 171.331301,30.0360717 181.82559,32.71602 C190.533641,34.948519 192.320471,36.4368516 192.320471,39.3399311 L192.320471,39.4882896 C192.320471,42.5397277 189.491571,44.4007369 184.802848,44.4007369 C178.848924,44.4007369 173.935884,41.9451067 169.247161,38.0747297 L162.474298,46.1869735 C168.726126,51.7694078 176.690011,54.5229419 184.579717,54.5229419 C195.818172,54.5229419 203.707284,48.7179698 203.707284,38.3720401 L203.707284,38.3720401 Z M144.53894,53.7787756 L156.001119,53.7787756 L156.001119,1.67882436 L144.53894,1.67882436 L144.53894,53.7787756 Z M124.820312,27.8771585 C124.820312,37.1068387 118.493712,43.4328459 109.115673,43.4328459 L100.258669,43.4328459 L100.258669,12.024754 L109.115673,12.024754 C118.493712,12.024754 124.820312,18.5003067 124.820312,27.7282066 L124.820312,27.8771585 Z M136.802933,27.7282066 L136.802933,27.579848 C136.802933,12.9172789 125.489706,1.67882436 109.115673,1.67882436 L88.7964901,1.67882436 L88.7964901,53.7787756 L109.115673,53.7787756 C125.489706,53.7787756 136.802933,42.3907757 136.802933,27.7282066 L136.802933,27.7282066 Z M404.027484,136.355127 C407.57444,127.574677 421.892224,128.708136 441.447063,128.708136 L463.20295,128.708136 L463.20295,66.8556889 L444.789284,66.8556889 C393.569989,63.4695541 336.054358,63.6012964 336.054358,149.633215 L336.054358,161.652035 L315.240845,161.652035 L315.240845,215.847995 L329.36695,215.847995 C331.664133,215.903185 333.892478,215.934043 336.054358,215.956594 L336.054358,425.730199 L404.027484,425.730199 L404.027484,224.78808 C407.18218,214.642731 419.110798,216.388614 441.447063,215.847995 L455.575542,215.847995 L455.575542,161.652035 L404.027484,161.652035 L404.027484,136.355127 Z M632.671106,260.964415 C628.575817,230.027509 610.377568,209.097683 581.261912,209.097683 C552.602607,209.097683 533.948007,229.570565 528.491974,260.964415 L632.671106,260.964415 Z M700.000356,285.981815 L700.000356,286.895703 C700.000356,293.719008 699.546972,297.810736 699.090028,304.183031 L634.495916,304.183031 L529.399334,304.183031 C536.222639,335.570353 558.065167,351.94676 588.998512,351.94676 C612.198817,351.94676 629.028608,344.671258 648.137778,326.926392 L687.715677,361.957993 C664.972316,390.164508 632.217129,407.451836 588.08403,407.451836 C514.843583,407.451836 460.70934,356.046202 460.70934,281.433143 L460.70934,280.522221 C460.70934,210.918932 510.297285,153.596761 581.261912,153.596761 C662.698277,153.596761 700.000356,216.834876 700.000356,285.981815 L700.000356,285.981815 Z M210.061183,401.992836 L279.211682,401.992836 L279.211682,158.145433 L210.061183,158.145433 L210.061183,401.992836 Z M231.119191,69.8905108 C215.476862,69.6745008 208.244681,82.4541036 208.244681,95.0651711 L208.244681,131.307377 L281.032931,131.307377 L281.032931,69.8905108 C281.032931,69.8905108 241.039035,70.0293743 231.119191,69.8905108 L231.119191,69.8905108 Z M130.208694,339.434796 L182.387572,339.434796 L182.387572,401.992836 L69.889087,401.992836 L67.8725981,401.992836 L0.000355932203,401.992836 L0.000355932203,339.434796 L0.000355932203,0.00177966102 L69.889087,0.00177966102 L69.889087,326.184006 C70.0036198,326.399423 70.0991627,326.613653 70.1703748,326.823728 C70.1703748,337.484771 79.0796006,339.223533 93.1873089,339.434796 L102.904198,339.434796 C104.702897,339.424114 106.552038,339.412245 108.455774,339.412245 L130.208694,339.412245 L130.208694,339.434796 Z" id="Fill-3" fill="url(#linearGradient-1)"></path>
                </g>
            </g>
        </g>
    </g>
</svg>