<?xml version="1.0" encoding="UTF-8"?>
<svg width="899px" height="297px" viewBox="0 0 899 297" version="1.1" xmlns="http://www.w3.org/2000/svg" xmlns:xlink="http://www.w3.org/1999/xlink">
    <!-- Generator: Sketch 64 (93537) - https://sketch.com -->
    <title>OWN</title>
    <desc>Created with Sketch.</desc>
    <defs>
        <linearGradient x1="0%" y1="44.5404423%" x2="101.999998%" y2="55.5687488%" id="linearGradient-1">
            <stop stop-color="#613C1E" offset="0%"></stop>
            <stop stop-color="#F0B05A" offset="26.8763548%"></stop>
            <stop stop-color="#FEE499" offset="51.8176481%"></stop>
            <stop stop-color="#F0B05A" offset="76.5128251%"></stop>
            <stop stop-color="#613C1E" offset="100%"></stop>
        </linearGradient>
    </defs>
    <g id="Symbols" stroke="none" stroke-width="1" fill="none" fill-rule="evenodd">
        <g id="Network-Logo/Centered/Color/OWN" transform="translate(-50.000000, -101.000000)" fill="url(#linearGradient-1)">
            <g id="OWN" transform="translate(50.000000, 101.000000)">
                <g id="own-logo" transform="translate(-0.000000, -0.000000)">
                    <path d="M590.675542,6.14431582 C590.675542,6.14431582 575.486232,12.0266607 569.48362,33.6008155 L530.801844,174.671115 L482.942896,6.13121748 L434.885091,6.13121748 L388.940882,170.81544 L348.655154,29.1842938 C343.814723,8.95688639 328.205075,6.23719495 327.543014,6.13121748 L277.881258,6.14431582 L353.038335,288.642142 L412.858448,288.642142 L458.925306,125.963156 L507.134337,288.642142 L564.396702,288.690964 L639.912197,6.13121748 L590.675542,6.14431582 Z M211.847769,147.495634 C211.847769,119.981978 210.902307,100.945329 209.039961,90.9179553 C206.806099,79.7272109 202.040685,70.2916439 194.884229,62.9160884 C183.664907,51.4752849 169.646112,45.6679578 153.22794,45.6679578 C136.589477,45.6679578 122.948153,51.3145325 111.52402,62.9303775 C104.384234,70.30117 99.6212019,79.7379277 97.3825767,90.9584411 C95.5357109,100.845305 94.595012,119.880764 94.595012,147.495634 C94.595012,175.133129 95.5357109,194.160252 97.3897212,204.05188 C99.6188204,215.237861 104.381853,224.671047 111.54069,232.060891 C122.957679,243.668401 136.599003,249.319739 153.22794,249.319739 C169.637777,249.319739 183.656571,243.507648 194.894946,232.046602 C202.044257,224.681763 206.809671,215.247387 209.047106,204.017348 C210.902307,194.060229 211.847769,175.031915 211.847769,147.495634 Z M301.234405,148.449432 C300.092468,230.306904 233.66841,296.91553 150.618989,296.91553 C67.5671853,296.91553 4.52448793e-12,230.31524 4.52448793e-12,148.449432 C4.52448793e-12,135.429683 1.8516288,122.539727 5.09406303,110.032004 C20.657271,50.0142247 77.3004418,-0.0166664482 153.070759,-8.68589782e-13 C237.275217,0.019056294 302.321567,70.3988122 301.234405,148.449432 Z M898.517463,288.636189 L854.82974,288.706443 L854.788064,288.706443 C854.158153,288.689773 839.283203,288.221805 831.423009,278.151564 C825.359669,270.317566 735.932547,151.496581 712.3603,120.167737 L712.3603,263.319481 C712.3603,285.981989 698.755889,288.5445 698.174799,288.640952 L652.268694,288.642142 L652.268694,6.13121748 L702.686582,6.09430398 C708.225988,6.77422684 722.293604,9.44866947 730.372897,20.2309838 C747.860371,43.5710328 853.30557,179.75208 853.30557,179.75208 C853.309142,179.761606 852.870943,6.13598051 852.870943,6.13598051 L898.54366,6.09430398 L898.517463,288.636189 L898.517463,288.636189 Z" id="Fill-7"></path>
                </g>
            </g>
        </g>
    </g>
</svg>